<svg width="351" height="52" viewBox="0 0 351 52" fill="none" xmlns="http://www.w3.org/2000/svg">
<rect x="7" y="7" width="344" height="45" rx="3" fill="#FDD78E"/>
<rect x="1" y="1" width="346" height="47" rx="4" fill="white" stroke="#422A20" stroke-width="2"/>
<path d="M85.1711 30L82.2111 24.9H79.4911V30H77.1911V16H82.7911C84.0445 16 85.1045 16.44 85.9711 17.32C86.8511 18.1867 87.2911 19.2467 87.2911 20.5C87.2911 21.3933 87.0311 22.2133 86.5111 22.96C86.0045 23.6933 85.3378 24.2267 84.5111 24.56L87.6911 30H85.1711ZM79.4911 18.16V22.84H82.7911C83.4045 22.84 83.9245 22.6133 84.3511 22.16C84.7778 21.7067 84.9911 21.1533 84.9911 20.5C84.9911 19.8467 84.7778 19.2933 84.3511 18.84C83.9245 18.3867 83.4045 18.16 82.7911 18.16H79.4911ZM90.6894 25.92C90.8494 26.68 91.2161 27.2667 91.7894 27.68C92.3627 28.08 93.0627 28.28 93.8894 28.28C95.0361 28.28 95.8961 27.8667 96.4694 27.04L98.2494 28.08C97.2627 29.5333 95.8027 30.26 93.8694 30.26C92.2427 30.26 90.9294 29.7667 89.9294 28.78C88.9294 27.78 88.4294 26.52 88.4294 25C88.4294 23.5067 88.9227 22.26 89.9094 21.26C90.8961 20.2467 92.1627 19.74 93.7094 19.74C95.1761 19.74 96.3761 20.2533 97.3094 21.28C98.2561 22.3067 98.7294 23.5533 98.7294 25.02C98.7294 25.2467 98.7027 25.5467 98.6494 25.92H90.6894ZM90.6694 24.16H96.5494C96.4027 23.3467 96.0627 22.7333 95.5294 22.32C95.0094 21.9067 94.3961 21.7 93.6894 21.7C92.8894 21.7 92.2227 21.92 91.6894 22.36C91.1561 22.8 90.8161 23.4 90.6694 24.16ZM108.691 20H110.851V30H108.691V28.56C107.878 29.6933 106.711 30.26 105.191 30.26C103.818 30.26 102.645 29.7533 101.671 28.74C100.698 27.7133 100.211 26.4667 100.211 25C100.211 23.52 100.698 22.2733 101.671 21.26C102.645 20.2467 103.818 19.74 105.191 19.74C106.711 19.74 107.878 20.3 108.691 21.42V20ZM103.271 27.3C103.871 27.9 104.625 28.2 105.531 28.2C106.438 28.2 107.191 27.9 107.791 27.3C108.391 26.6867 108.691 25.92 108.691 25C108.691 24.08 108.391 23.32 107.791 22.72C107.191 22.1067 106.438 21.8 105.531 21.8C104.625 21.8 103.871 22.1067 103.271 22.72C102.671 23.32 102.371 24.08 102.371 25C102.371 25.92 102.671 26.6867 103.271 27.3ZM121.489 16H123.649V30H121.489V28.56C120.676 29.6933 119.509 30.26 117.989 30.26C116.616 30.26 115.442 29.7533 114.469 28.74C113.496 27.7133 113.009 26.4667 113.009 25C113.009 23.52 113.496 22.2733 114.469 21.26C115.442 20.2467 116.616 19.74 117.989 19.74C119.509 19.74 120.676 20.3 121.489 21.42V16ZM116.069 27.3C116.669 27.9 117.422 28.2 118.329 28.2C119.236 28.2 119.989 27.9 120.589 27.3C121.189 26.6867 121.489 25.92 121.489 25C121.489 24.08 121.189 23.32 120.589 22.72C119.989 22.1067 119.236 21.8 118.329 21.8C117.422 21.8 116.669 22.1067 116.069 22.72C115.469 23.32 115.169 24.08 115.169 25C115.169 25.92 115.469 26.6867 116.069 27.3ZM137.147 22.08H134.667V26.88C134.667 27.2933 134.76 27.5933 134.947 27.78C135.133 27.9533 135.407 28.0533 135.767 28.08C136.14 28.0933 136.6 28.0867 137.147 28.06V30C135.493 30.2 134.307 30.06 133.587 29.58C132.867 29.0867 132.507 28.1867 132.507 26.88V22.08H130.667V20H132.507V17.84L134.667 17.2V20H137.147V22.08ZM144.566 19.74C145.712 19.74 146.639 20.1067 147.346 20.84C148.052 21.5733 148.406 22.58 148.406 23.86V30H146.246V24.08C146.246 23.3333 146.046 22.76 145.646 22.36C145.246 21.96 144.699 21.76 144.006 21.76C143.246 21.76 142.632 22 142.166 22.48C141.699 22.9467 141.466 23.6667 141.466 24.64V30H139.306V16H141.466V21.28C142.119 20.2533 143.152 19.74 144.566 19.74ZM152.632 25.92C152.792 26.68 153.158 27.2667 153.732 27.68C154.305 28.08 155.005 28.28 155.832 28.28C156.978 28.28 157.838 27.8667 158.412 27.04L160.192 28.08C159.205 29.5333 157.745 30.26 155.812 30.26C154.185 30.26 152.872 29.7667 151.872 28.78C150.872 27.78 150.372 26.52 150.372 25C150.372 23.5067 150.865 22.26 151.852 21.26C152.838 20.2467 154.105 19.74 155.652 19.74C157.118 19.74 158.318 20.2533 159.252 21.28C160.198 22.3067 160.672 23.5533 160.672 25.02C160.672 25.2467 160.645 25.5467 160.592 25.92H152.632ZM152.612 24.16H158.492C158.345 23.3467 158.005 22.7333 157.472 22.32C156.952 21.9067 156.338 21.7 155.632 21.7C154.832 21.7 154.165 21.92 153.632 22.36C153.098 22.8 152.758 23.4 152.612 24.16ZM174.732 30.26C172.626 30.26 170.879 29.5667 169.492 28.18C168.106 26.78 167.412 25.0533 167.412 23C167.412 20.9467 168.106 19.2267 169.492 17.84C170.879 16.44 172.626 15.74 174.732 15.74C175.999 15.74 177.166 16.04 178.232 16.64C179.312 17.24 180.152 18.0533 180.752 19.08L178.752 20.24C178.379 19.5467 177.832 19 177.112 18.6C176.406 18.1867 175.612 17.98 174.732 17.98C173.239 17.98 172.026 18.4533 171.092 19.4C170.172 20.3467 169.712 21.5467 169.712 23C169.712 24.4533 170.172 25.6533 171.092 26.6C172.026 27.5467 173.239 28.02 174.732 28.02C175.612 28.02 176.412 27.82 177.132 27.42C177.852 27.0067 178.392 26.4533 178.752 25.76L180.752 26.9C180.166 27.9267 179.332 28.7467 178.252 29.36C177.186 29.96 176.012 30.26 174.732 30.26ZM190.623 20H192.783V30H190.623V28.56C189.81 29.6933 188.643 30.26 187.123 30.26C185.75 30.26 184.577 29.7533 183.603 28.74C182.63 27.7133 182.143 26.4667 182.143 25C182.143 23.52 182.63 22.2733 183.603 21.26C184.577 20.2467 185.75 19.74 187.123 19.74C188.643 19.74 189.81 20.3 190.623 21.42V20ZM185.203 27.3C185.803 27.9 186.557 28.2 187.463 28.2C188.37 28.2 189.123 27.9 189.723 27.3C190.323 26.6867 190.623 25.92 190.623 25C190.623 24.08 190.323 23.32 189.723 22.72C189.123 22.1067 188.37 21.8 187.463 21.8C186.557 21.8 185.803 22.1067 185.203 22.72C184.603 23.32 184.303 24.08 184.303 25C184.303 25.92 184.603 26.6867 185.203 27.3ZM197.383 22.76C197.383 23.0933 197.563 23.36 197.923 23.56C198.296 23.7467 198.743 23.9133 199.263 24.06C199.796 24.1933 200.329 24.3533 200.863 24.54C201.396 24.7267 201.843 25.0467 202.203 25.5C202.576 25.94 202.763 26.5 202.763 27.18C202.763 28.14 202.389 28.8933 201.643 29.44C200.909 29.9867 199.983 30.26 198.863 30.26C197.876 30.26 197.029 30.0533 196.323 29.64C195.616 29.2267 195.103 28.6533 194.783 27.92L196.643 26.84C196.989 27.8 197.729 28.28 198.863 28.28C199.996 28.28 200.563 27.9067 200.563 27.16C200.563 26.84 200.376 26.58 200.003 26.38C199.643 26.18 199.196 26.0133 198.663 25.88C198.143 25.7333 197.616 25.5667 197.083 25.38C196.549 25.1933 196.096 24.8867 195.723 24.46C195.363 24.02 195.183 23.4667 195.183 22.8C195.183 21.88 195.529 21.14 196.223 20.58C196.929 20.02 197.803 19.74 198.843 19.74C199.669 19.74 200.403 19.9267 201.043 20.3C201.696 20.66 202.196 21.1667 202.543 21.82L200.723 22.84C200.376 22.08 199.749 21.7 198.843 21.7C198.429 21.7 198.083 21.7933 197.803 21.98C197.523 22.1533 197.383 22.4133 197.383 22.76ZM206.307 25.92C206.467 26.68 206.834 27.2667 207.407 27.68C207.981 28.08 208.681 28.28 209.507 28.28C210.654 28.28 211.514 27.8667 212.087 27.04L213.867 28.08C212.881 29.5333 211.421 30.26 209.487 30.26C207.861 30.26 206.547 29.7667 205.547 28.78C204.547 27.78 204.047 26.52 204.047 25C204.047 23.5067 204.541 22.26 205.527 21.26C206.514 20.2467 207.781 19.74 209.327 19.74C210.794 19.74 211.994 20.2533 212.927 21.28C213.874 22.3067 214.347 23.5533 214.347 25.02C214.347 25.2467 214.321 25.5467 214.267 25.92H206.307ZM206.287 24.16H212.167C212.021 23.3467 211.681 22.7333 211.147 22.32C210.627 21.9067 210.014 21.7 209.307 21.7C208.507 21.7 207.841 21.92 207.307 22.36C206.774 22.8 206.434 23.4 206.287 24.16ZM223.588 22.76C223.588 23.0933 223.768 23.36 224.128 23.56C224.501 23.7467 224.948 23.9133 225.468 24.06C226.001 24.1933 226.535 24.3533 227.068 24.54C227.601 24.7267 228.048 25.0467 228.408 25.5C228.781 25.94 228.968 26.5 228.968 27.18C228.968 28.14 228.595 28.8933 227.848 29.44C227.115 29.9867 226.188 30.26 225.068 30.26C224.081 30.26 223.235 30.0533 222.528 29.64C221.821 29.2267 221.308 28.6533 220.988 27.92L222.848 26.84C223.195 27.8 223.935 28.28 225.068 28.28C226.201 28.28 226.768 27.9067 226.768 27.16C226.768 26.84 226.581 26.58 226.208 26.38C225.848 26.18 225.401 26.0133 224.868 25.88C224.348 25.7333 223.821 25.5667 223.288 25.38C222.755 25.1933 222.301 24.8867 221.928 24.46C221.568 24.02 221.388 23.4667 221.388 22.8C221.388 21.88 221.735 21.14 222.428 20.58C223.135 20.02 224.008 19.74 225.048 19.74C225.875 19.74 226.608 19.9267 227.248 20.3C227.901 20.66 228.401 21.1667 228.748 21.82L226.928 22.84C226.581 22.08 225.955 21.7 225.048 21.7C224.635 21.7 224.288 21.7933 224.008 21.98C223.728 22.1533 223.588 22.4133 223.588 22.76ZM236.256 22.08H233.776V26.88C233.776 27.2933 233.869 27.5933 234.056 27.78C234.243 27.9533 234.516 28.0533 234.876 28.08C235.249 28.0933 235.709 28.0867 236.256 28.06V30C234.603 30.2 233.416 30.06 232.696 29.58C231.976 29.0867 231.616 28.1867 231.616 26.88V22.08H229.776V20H231.616V17.84L233.776 17.2V20H236.256V22.08ZM245.253 20H247.413V30H245.253V28.72C244.6 29.7467 243.566 30.26 242.153 30.26C241.006 30.26 240.08 29.8933 239.373 29.16C238.666 28.4267 238.313 27.42 238.313 26.14V20H240.473V25.92C240.473 26.6667 240.673 27.24 241.073 27.64C241.473 28.04 242.02 28.24 242.713 28.24C243.473 28.24 244.086 28.0067 244.553 27.54C245.02 27.06 245.253 26.3333 245.253 25.36V20ZM258.059 16H260.219V30H258.059V28.56C257.245 29.6933 256.079 30.26 254.559 30.26C253.185 30.26 252.012 29.7533 251.039 28.74C250.065 27.7133 249.579 26.4667 249.579 25C249.579 23.52 250.065 22.2733 251.039 21.26C252.012 20.2467 253.185 19.74 254.559 19.74C256.079 19.74 257.245 20.3 258.059 21.42V16ZM252.639 27.3C253.239 27.9 253.992 28.2 254.899 28.2C255.805 28.2 256.559 27.9 257.159 27.3C257.759 26.6867 258.059 25.92 258.059 25C258.059 24.08 257.759 23.32 257.159 22.72C256.559 22.1067 255.805 21.8 254.899 21.8C253.992 21.8 253.239 22.1067 252.639 22.72C252.039 23.32 251.739 24.08 251.739 25C251.739 25.92 252.039 26.6867 252.639 27.3ZM269.676 20H271.976L268.136 30.32C267.176 32.9067 265.55 34.1333 263.256 34V31.98C263.936 32.02 264.483 31.8733 264.896 31.54C265.31 31.22 265.65 30.7133 265.916 30.02L266.016 29.82L261.776 20H264.136L267.116 27.26L269.676 20Z" fill="#422A20"/>
</svg>
