<svg width="351" height="52" viewBox="0 0 351 52" fill="none" xmlns="http://www.w3.org/2000/svg">
<rect x="7" y="7" width="344" height="45" rx="3" fill="#FDD78E"/>
<rect x="1" y="1" width="346" height="47" rx="4" fill="white" stroke="#422A20" stroke-width="2"/>
<path d="M77.5389 16C79.4589 16 81.0523 16.6733 82.3189 18.02C83.5989 19.3667 84.2389 21.0267 84.2389 23C84.2389 24.96 83.5989 26.62 82.3189 27.98C81.0523 29.3267 79.4589 30 77.5389 30H72.0389V16H77.5389ZM77.5389 27.8C78.8589 27.8 79.9323 27.3467 80.7589 26.44C81.5989 25.5333 82.0189 24.3867 82.0189 23C82.0189 21.6 81.5989 20.4533 80.7589 19.56C79.9323 18.6533 78.8589 18.2 77.5389 18.2H74.3389V27.8H77.5389ZM91.1158 30.26C89.6491 30.26 88.4025 29.7533 87.3758 28.74C86.3491 27.7267 85.8358 26.48 85.8358 25C85.8358 23.52 86.3491 22.2733 87.3758 21.26C88.4025 20.2467 89.6491 19.74 91.1158 19.74C92.5958 19.74 93.8425 20.2467 94.8558 21.26C95.8825 22.2733 96.3958 23.52 96.3958 25C96.3958 26.48 95.8825 27.7267 94.8558 28.74C93.8425 29.7533 92.5958 30.26 91.1158 30.26ZM88.8958 27.26C89.4958 27.86 90.2358 28.16 91.1158 28.16C91.9958 28.16 92.7358 27.86 93.3358 27.26C93.9358 26.66 94.2358 25.9067 94.2358 25C94.2358 24.0933 93.9358 23.34 93.3358 22.74C92.7358 22.14 91.9958 21.84 91.1158 21.84C90.2358 21.84 89.4958 22.14 88.8958 22.74C88.2958 23.34 87.9958 24.0933 87.9958 25C87.9958 25.9067 88.2958 26.66 88.8958 27.26ZM109.678 20H111.958L108.818 30H106.698L104.618 23.26L102.518 30H100.398L97.2583 20H99.5383L101.478 26.9L103.578 20H105.638L107.718 26.9L109.678 20ZM119.009 19.74C120.156 19.74 121.082 20.1067 121.789 20.84C122.496 21.5733 122.849 22.58 122.849 23.86V30H120.689V24.08C120.689 23.3333 120.489 22.76 120.089 22.36C119.689 21.96 119.142 21.76 118.449 21.76C117.689 21.76 117.076 22 116.609 22.48C116.142 22.9467 115.909 23.6667 115.909 24.64V30H113.749V20H115.909V21.28C116.562 20.2533 117.596 19.74 119.009 19.74ZM125.375 30V15.4H127.535V30H125.375ZM134.963 30.26C133.496 30.26 132.249 29.7533 131.223 28.74C130.196 27.7267 129.683 26.48 129.683 25C129.683 23.52 130.196 22.2733 131.223 21.26C132.249 20.2467 133.496 19.74 134.963 19.74C136.443 19.74 137.689 20.2467 138.703 21.26C139.729 22.2733 140.243 23.52 140.243 25C140.243 26.48 139.729 27.7267 138.703 28.74C137.689 29.7533 136.443 30.26 134.963 30.26ZM132.743 27.26C133.343 27.86 134.083 28.16 134.963 28.16C135.843 28.16 136.583 27.86 137.183 27.26C137.783 26.66 138.083 25.9067 138.083 25C138.083 24.0933 137.783 23.34 137.183 22.74C136.583 22.14 135.843 21.84 134.963 21.84C134.083 21.84 133.343 22.14 132.743 22.74C132.143 23.34 131.843 24.0933 131.843 25C131.843 25.9067 132.143 26.66 132.743 27.26ZM150.316 20H152.476V30H150.316V28.56C149.502 29.6933 148.336 30.26 146.816 30.26C145.442 30.26 144.269 29.7533 143.296 28.74C142.322 27.7133 141.836 26.4667 141.836 25C141.836 23.52 142.322 22.2733 143.296 21.26C144.269 20.2467 145.442 19.74 146.816 19.74C148.336 19.74 149.502 20.3 150.316 21.42V20ZM144.896 27.3C145.496 27.9 146.249 28.2 147.156 28.2C148.062 28.2 148.816 27.9 149.416 27.3C150.016 26.6867 150.316 25.92 150.316 25C150.316 24.08 150.016 23.32 149.416 22.72C148.816 22.1067 148.062 21.8 147.156 21.8C146.249 21.8 145.496 22.1067 144.896 22.72C144.296 23.32 143.996 24.08 143.996 25C143.996 25.92 144.296 26.6867 144.896 27.3ZM163.113 16H165.273V30H163.113V28.56C162.3 29.6933 161.133 30.26 159.613 30.26C158.24 30.26 157.067 29.7533 156.093 28.74C155.12 27.7133 154.633 26.4667 154.633 25C154.633 23.52 155.12 22.2733 156.093 21.26C157.067 20.2467 158.24 19.74 159.613 19.74C161.133 19.74 162.3 20.3 163.113 21.42V16ZM157.693 27.3C158.293 27.9 159.047 28.2 159.953 28.2C160.86 28.2 161.613 27.9 162.213 27.3C162.813 26.6867 163.113 25.92 163.113 25C163.113 24.08 162.813 23.32 162.213 22.72C161.613 22.1067 160.86 21.8 159.953 21.8C159.047 21.8 158.293 22.1067 157.693 22.72C157.093 23.32 156.793 24.08 156.793 25C156.793 25.92 157.093 26.6867 157.693 27.3ZM186.731 16V30H184.431V20.02L180.171 27.06H179.891L175.631 20V30H173.331V16H175.811L180.031 23L184.271 16H186.731ZM196.323 20H198.623L194.783 30.32C193.823 32.9067 192.196 34.1333 189.903 34V31.98C190.583 32.02 191.129 31.8733 191.543 31.54C191.956 31.22 192.296 30.7133 192.563 30.02L192.663 29.82L188.423 20H190.783L193.763 27.26L196.323 20ZM213.493 30L210.533 24.9H207.813V30H205.513V16H211.113C212.366 16 213.426 16.44 214.293 17.32C215.173 18.1867 215.613 19.2467 215.613 20.5C215.613 21.3933 215.353 22.2133 214.833 22.96C214.326 23.6933 213.66 24.2267 212.833 24.56L216.013 30H213.493ZM207.813 18.16V22.84H211.113C211.726 22.84 212.246 22.6133 212.673 22.16C213.1 21.7067 213.313 21.1533 213.313 20.5C213.313 19.8467 213.1 19.2933 212.673 18.84C212.246 18.3867 211.726 18.16 211.113 18.16H207.813ZM219.011 25.92C219.171 26.68 219.538 27.2667 220.111 27.68C220.685 28.08 221.385 28.28 222.211 28.28C223.358 28.28 224.218 27.8667 224.791 27.04L226.571 28.08C225.585 29.5333 224.125 30.26 222.191 30.26C220.565 30.26 219.251 29.7667 218.251 28.78C217.251 27.78 216.751 26.52 216.751 25C216.751 23.5067 217.245 22.26 218.231 21.26C219.218 20.2467 220.485 19.74 222.031 19.74C223.498 19.74 224.698 20.2533 225.631 21.28C226.578 22.3067 227.051 23.5533 227.051 25.02C227.051 25.2467 227.025 25.5467 226.971 25.92H219.011ZM218.991 24.16H224.871C224.725 23.3467 224.385 22.7333 223.851 22.32C223.331 21.9067 222.718 21.7 222.011 21.7C221.211 21.7 220.545 21.92 220.011 22.36C219.478 22.8 219.138 23.4 218.991 24.16ZM230.701 22.76C230.701 23.0933 230.881 23.36 231.241 23.56C231.615 23.7467 232.061 23.9133 232.581 24.06C233.115 24.1933 233.648 24.3533 234.181 24.54C234.715 24.7267 235.161 25.0467 235.521 25.5C235.895 25.94 236.081 26.5 236.081 27.18C236.081 28.14 235.708 28.8933 234.961 29.44C234.228 29.9867 233.301 30.26 232.181 30.26C231.195 30.26 230.348 30.0533 229.641 29.64C228.935 29.2267 228.421 28.6533 228.101 27.92L229.961 26.84C230.308 27.8 231.048 28.28 232.181 28.28C233.315 28.28 233.881 27.9067 233.881 27.16C233.881 26.84 233.695 26.58 233.321 26.38C232.961 26.18 232.515 26.0133 231.981 25.88C231.461 25.7333 230.935 25.5667 230.401 25.38C229.868 25.1933 229.415 24.8867 229.041 24.46C228.681 24.02 228.501 23.4667 228.501 22.8C228.501 21.88 228.848 21.14 229.541 20.58C230.248 20.02 231.121 19.74 232.161 19.74C232.988 19.74 233.721 19.9267 234.361 20.3C235.015 20.66 235.515 21.1667 235.861 21.82L234.041 22.84C233.695 22.08 233.068 21.7 232.161 21.7C231.748 21.7 231.401 21.7933 231.121 21.98C230.841 22.1533 230.701 22.4133 230.701 22.76ZM244.803 20H246.963V30H244.803V28.72C244.15 29.7467 243.116 30.26 241.703 30.26C240.556 30.26 239.63 29.8933 238.923 29.16C238.216 28.4267 237.863 27.42 237.863 26.14V20H240.023V25.92C240.023 26.6667 240.223 27.24 240.623 27.64C241.023 28.04 241.57 28.24 242.263 28.24C243.023 28.24 243.636 28.0067 244.103 27.54C244.57 27.06 244.803 26.3333 244.803 25.36V20ZM260.609 19.74C261.742 19.74 262.655 20.1067 263.349 20.84C264.042 21.5733 264.389 22.56 264.389 23.8V30H262.229V23.94C262.229 23.2467 262.055 22.7133 261.709 22.34C261.362 21.9533 260.889 21.76 260.289 21.76C259.622 21.76 259.089 21.98 258.689 22.42C258.302 22.86 258.109 23.52 258.109 24.4V30H255.949V23.94C255.949 23.2467 255.782 22.7133 255.449 22.34C255.129 21.9533 254.669 21.76 254.069 21.76C253.415 21.76 252.882 21.9867 252.469 22.44C252.055 22.88 251.849 23.5333 251.849 24.4V30H249.689V20H251.849V21.2C252.489 20.2267 253.442 19.74 254.709 19.74C255.989 19.74 256.935 20.2667 257.549 21.32C258.215 20.2667 259.235 19.74 260.609 19.74ZM268.6 25.92C268.76 26.68 269.127 27.2667 269.7 27.68C270.274 28.08 270.974 28.28 271.8 28.28C272.947 28.28 273.807 27.8667 274.38 27.04L276.16 28.08C275.174 29.5333 273.714 30.26 271.78 30.26C270.154 30.26 268.84 29.7667 267.84 28.78C266.84 27.78 266.34 26.52 266.34 25C266.34 23.5067 266.834 22.26 267.82 21.26C268.807 20.2467 270.074 19.74 271.62 19.74C273.087 19.74 274.287 20.2533 275.22 21.28C276.167 22.3067 276.64 23.5533 276.64 25.02C276.64 25.2467 276.614 25.5467 276.56 25.92H268.6ZM268.58 24.16H274.46C274.314 23.3467 273.974 22.7333 273.44 22.32C272.92 21.9067 272.307 21.7 271.6 21.7C270.8 21.7 270.134 21.92 269.6 22.36C269.067 22.8 268.727 23.4 268.58 24.16Z" fill="#422A20"/>
</svg>
