<svg width="351" height="52" viewBox="0 0 351 52" fill="none" xmlns="http://www.w3.org/2000/svg">
<rect x="7" y="7" width="344" height="45" rx="3" fill="#FDD78E"/>
<rect x="1" y="1" width="346" height="47" rx="4" stroke="#422A20" stroke-width="2"/>
<path d="M113.232 30.26C111.886 30.26 110.739 29.9533 109.792 29.34C108.859 28.7267 108.206 27.8867 107.832 26.82L109.812 25.66C110.372 27.2333 111.532 28.02 113.292 28.02C114.159 28.02 114.806 27.8533 115.232 27.52C115.672 27.1733 115.892 26.7267 115.892 26.18C115.892 25.6067 115.659 25.1733 115.192 24.88C114.726 24.5733 113.899 24.24 112.712 23.88C112.046 23.68 111.506 23.4933 111.092 23.32C110.679 23.1467 110.239 22.9067 109.772 22.6C109.319 22.28 108.979 21.8867 108.752 21.42C108.526 20.9533 108.412 20.4067 108.412 19.78C108.412 18.54 108.852 17.56 109.732 16.84C110.612 16.1067 111.672 15.74 112.912 15.74C114.032 15.74 115.012 16.0133 115.852 16.56C116.692 17.1067 117.339 17.86 117.792 18.82L115.852 19.94C115.266 18.6333 114.286 17.98 112.912 17.98C112.246 17.98 111.712 18.14 111.312 18.46C110.912 18.7667 110.712 19.1867 110.712 19.72C110.712 20.24 110.912 20.6533 111.312 20.96C111.726 21.2533 112.466 21.5667 113.532 21.9C114.066 22.0733 114.452 22.2067 114.692 22.3C114.946 22.38 115.292 22.5133 115.732 22.7C116.186 22.8867 116.526 23.0733 116.752 23.26C116.979 23.4467 117.219 23.68 117.472 23.96C117.739 24.24 117.926 24.56 118.032 24.92C118.139 25.28 118.192 25.6867 118.192 26.14C118.192 27.4067 117.732 28.4133 116.812 29.16C115.906 29.8933 114.712 30.26 113.232 30.26ZM122.207 25.92C122.367 26.68 122.734 27.2667 123.307 27.68C123.881 28.08 124.581 28.28 125.407 28.28C126.554 28.28 127.414 27.8667 127.987 27.04L129.767 28.08C128.781 29.5333 127.321 30.26 125.387 30.26C123.761 30.26 122.447 29.7667 121.447 28.78C120.447 27.78 119.947 26.52 119.947 25C119.947 23.5067 120.441 22.26 121.427 21.26C122.414 20.2467 123.681 19.74 125.227 19.74C126.694 19.74 127.894 20.2533 128.827 21.28C129.774 22.3067 130.247 23.5533 130.247 25.02C130.247 25.2467 130.221 25.5467 130.167 25.92H122.207ZM122.187 24.16H128.067C127.921 23.3467 127.581 22.7333 127.047 22.32C126.527 21.9067 125.914 21.7 125.207 21.7C124.407 21.7 123.741 21.92 123.207 22.36C122.674 22.8 122.334 23.4 122.187 24.16ZM137.608 19.74C138.755 19.74 139.681 20.1067 140.388 20.84C141.095 21.5733 141.448 22.58 141.448 23.86V30H139.288V24.08C139.288 23.3333 139.088 22.76 138.688 22.36C138.288 21.96 137.741 21.76 137.048 21.76C136.288 21.76 135.675 22 135.208 22.48C134.741 22.9467 134.508 23.6667 134.508 24.64V30H132.348V20H134.508V21.28C135.161 20.2533 136.195 19.74 137.608 19.74ZM151.894 16H154.054V30H151.894V28.56C151.08 29.6933 149.914 30.26 148.394 30.26C147.02 30.26 145.847 29.7533 144.874 28.74C143.9 27.7133 143.414 26.4667 143.414 25C143.414 23.52 143.9 22.2733 144.874 21.26C145.847 20.2467 147.02 19.74 148.394 19.74C149.914 19.74 151.08 20.3 151.894 21.42V16ZM146.474 27.3C147.074 27.9 147.827 28.2 148.734 28.2C149.64 28.2 150.394 27.9 150.994 27.3C151.594 26.6867 151.894 25.92 151.894 25C151.894 24.08 151.594 23.32 150.994 22.72C150.394 22.1067 149.64 21.8 148.734 21.8C147.827 21.8 147.074 22.1067 146.474 22.72C145.874 23.32 145.574 24.08 145.574 25C145.574 25.92 145.874 26.6867 146.474 27.3ZM169.891 20H172.051V30H169.891V28.56C169.078 29.6933 167.911 30.26 166.391 30.26C165.018 30.26 163.845 29.7533 162.871 28.74C161.898 27.7133 161.411 26.4667 161.411 25C161.411 23.52 161.898 22.2733 162.871 21.26C163.845 20.2467 165.018 19.74 166.391 19.74C167.911 19.74 169.078 20.3 169.891 21.42V20ZM164.471 27.3C165.071 27.9 165.825 28.2 166.731 28.2C167.638 28.2 168.391 27.9 168.991 27.3C169.591 26.6867 169.891 25.92 169.891 25C169.891 24.08 169.591 23.32 168.991 22.72C168.391 22.1067 167.638 21.8 166.731 21.8C165.825 21.8 165.071 22.1067 164.471 22.72C163.871 23.32 163.571 24.08 163.571 25C163.571 25.92 163.871 26.6867 164.471 27.3ZM180.029 19.74C181.176 19.74 182.102 20.1067 182.809 20.84C183.516 21.5733 183.869 22.58 183.869 23.86V30H181.709V24.08C181.709 23.3333 181.509 22.76 181.109 22.36C180.709 21.96 180.162 21.76 179.469 21.76C178.709 21.76 178.096 22 177.629 22.48C177.162 22.9467 176.929 23.6667 176.929 24.64V30H174.769V20H176.929V21.28C177.582 20.2533 178.616 19.74 180.029 19.74ZM194.035 27.8H200.235V30H191.735V16H200.135V18.2H194.035V21.84H199.635V24.02H194.035V27.8ZM213.32 19.74C214.454 19.74 215.367 20.1067 216.06 20.84C216.754 21.5733 217.1 22.56 217.1 23.8V30H214.94V23.94C214.94 23.2467 214.767 22.7133 214.42 22.34C214.074 21.9533 213.6 21.76 213 21.76C212.334 21.76 211.8 21.98 211.4 22.42C211.014 22.86 210.82 23.52 210.82 24.4V30H208.66V23.94C208.66 23.2467 208.494 22.7133 208.16 22.34C207.84 21.9533 207.38 21.76 206.78 21.76C206.127 21.76 205.594 21.9867 205.18 22.44C204.767 22.88 204.56 23.5333 204.56 24.4V30H202.4V20H204.56V21.2C205.2 20.2267 206.154 19.74 207.42 19.74C208.7 19.74 209.647 20.2667 210.26 21.32C210.927 20.2667 211.947 19.74 213.32 19.74ZM227.532 20H229.692V30H227.532V28.56C226.719 29.6933 225.552 30.26 224.032 30.26C222.659 30.26 221.485 29.7533 220.512 28.74C219.539 27.7133 219.052 26.4667 219.052 25C219.052 23.52 219.539 22.2733 220.512 21.26C221.485 20.2467 222.659 19.74 224.032 19.74C225.552 19.74 226.719 20.3 227.532 21.42V20ZM222.112 27.3C222.712 27.9 223.465 28.2 224.372 28.2C225.279 28.2 226.032 27.9 226.632 27.3C227.232 26.6867 227.532 25.92 227.532 25C227.532 24.08 227.232 23.32 226.632 22.72C226.032 22.1067 225.279 21.8 224.372 21.8C223.465 21.8 222.712 22.1067 222.112 22.72C221.512 23.32 221.212 24.08 221.212 25C221.212 25.92 221.512 26.6867 222.112 27.3ZM234.45 18.1C234.183 18.3667 233.863 18.5 233.49 18.5C233.116 18.5 232.79 18.3667 232.51 18.1C232.243 17.82 232.11 17.4933 232.11 17.12C232.11 16.7467 232.243 16.4267 232.51 16.16C232.776 15.88 233.103 15.74 233.49 15.74C233.876 15.74 234.203 15.88 234.47 16.16C234.736 16.4267 234.87 16.7467 234.87 17.12C234.87 17.4933 234.73 17.82 234.45 18.1ZM232.41 30V20H234.57V30H232.41ZM237.278 30V15.4H239.438V30H237.278Z" fill="#422A20"/>
</svg>
