<svg width="1081" height="13" viewBox="0 0 1081 13" fill="none" xmlns="http://www.w3.org/2000/svg">
<path d="M2.64112 12.7293H0L6.66326 0H9.30438L2.64112 12.7293Z" fill="#422A20" fill-opacity="0.24"/>
<path d="M219.179 12.7293H216.538L223.202 0H225.843L219.179 12.7293Z" fill="#422A20" fill-opacity="0.24"/>
<path d="M434.872 12.7293H432.231L438.894 0H441.535L434.872 12.7293Z" fill="#422A20" fill-opacity="0.24"/>
<path d="M651.41 12.7293H648.769L655.432 0H658.074L651.41 12.7293Z" fill="#422A20" fill-opacity="0.24"/>
<path d="M867.103 12.7293H864.462L871.125 0H873.766L867.103 12.7293Z" fill="#422A20" fill-opacity="0.24"/>
<path d="M56.7756 12.7293H54.1345L60.7978 0H63.4389L56.7756 12.7293Z" fill="#422A20" fill-opacity="0.24"/>
<path d="M273.314 12.7293H270.673L277.336 0H279.977L273.314 12.7293Z" fill="#422A20" fill-opacity="0.24"/>
<path d="M489.007 12.7293H486.365L493.029 0H495.67L489.007 12.7293Z" fill="#422A20" fill-opacity="0.24"/>
<path d="M705.545 12.7293H702.904L709.567 0H712.208L705.545 12.7293Z" fill="#422A20" fill-opacity="0.24"/>
<path d="M921.237 12.7293H918.596L925.26 0H927.901L921.237 12.7293Z" fill="#422A20" fill-opacity="0.24"/>
<path d="M110.91 12.7293H108.269L114.932 0H117.574L110.91 12.7293Z" fill="#422A20" fill-opacity="0.24"/>
<path d="M327.449 12.7293H324.807L331.471 0H334.112L327.449 12.7293Z" fill="#422A20" fill-opacity="0.24"/>
<path d="M543.141 12.7293H540.5L547.163 0H549.804L543.141 12.7293Z" fill="#422A20" fill-opacity="0.24"/>
<path d="M759.679 12.7293H757.038L763.702 0H766.343L759.679 12.7293Z" fill="#422A20" fill-opacity="0.24"/>
<path d="M975.372 12.7293H972.731L979.394 0H982.035L975.372 12.7293Z" fill="#422A20" fill-opacity="0.24"/>
<path d="M165.045 12.7293H162.404L169.067 0H171.708L165.045 12.7293Z" fill="#422A20" fill-opacity="0.24"/>
<path d="M381.583 12.7293H378.942L385.605 0H388.246L381.583 12.7293Z" fill="#422A20" fill-opacity="0.24"/>
<path d="M597.276 12.7293H594.635L601.298 0H603.939L597.276 12.7293Z" fill="#422A20" fill-opacity="0.24"/>
<path d="M813.814 12.7293H811.173L817.836 0H820.477L813.814 12.7293Z" fill="#422A20" fill-opacity="0.24"/>
<path d="M1029.51 12.7293H1026.87L1033.53 0H1036.17L1029.51 12.7293Z" fill="#422A20" fill-opacity="0.24"/>
<path d="M29.7084 12.7293H27.0673L33.7305 0H36.3716L29.7084 12.7293Z" fill="#422A20" fill-opacity="0.24"/>
<path d="M246.247 12.7293H243.606L250.269 0H252.91L246.247 12.7293Z" fill="#422A20" fill-opacity="0.24"/>
<path d="M461.939 12.7293H459.298L465.961 0H468.603L461.939 12.7293Z" fill="#422A20" fill-opacity="0.24"/>
<path d="M678.478 12.7293H675.836L682.5 0H685.141L678.478 12.7293Z" fill="#422A20" fill-opacity="0.24"/>
<path d="M894.17 12.7293H891.529L898.192 0H900.833L894.17 12.7293Z" fill="#422A20" fill-opacity="0.24"/>
<path d="M83.843 12.7293H81.2018L87.8651 0H90.5062L83.843 12.7293Z" fill="#422A20" fill-opacity="0.24"/>
<path d="M300.381 12.7293H297.74L304.403 0H307.045L300.381 12.7293Z" fill="#422A20" fill-opacity="0.24"/>
<path d="M516.074 12.7293H513.433L520.096 0H522.737L516.074 12.7293Z" fill="#422A20" fill-opacity="0.24"/>
<path d="M732.612 12.7293H729.971L736.634 0H739.275L732.612 12.7293Z" fill="#422A20" fill-opacity="0.24"/>
<path d="M948.305 12.7293H945.664L952.327 0H954.968L948.305 12.7293Z" fill="#422A20" fill-opacity="0.24"/>
<path d="M137.978 12.7293H135.336L142 0H144.641L137.978 12.7293Z" fill="#422A20" fill-opacity="0.24"/>
<path d="M354.516 12.7293H351.875L358.538 0H361.179L354.516 12.7293Z" fill="#422A20" fill-opacity="0.24"/>
<path d="M570.208 12.7293H567.567L574.231 0H576.872L570.208 12.7293Z" fill="#422A20" fill-opacity="0.24"/>
<path d="M786.747 12.7293H784.106L790.769 0H793.41L786.747 12.7293Z" fill="#422A20" fill-opacity="0.24"/>
<path d="M1002.44 12.7293H999.798L1006.46 0H1009.1L1002.44 12.7293Z" fill="#422A20" fill-opacity="0.24"/>
<path d="M192.112 12.7293H189.471L196.134 0H198.775L192.112 12.7293Z" fill="#422A20" fill-opacity="0.24"/>
<path d="M408.651 12.7293H406.009L412.673 0H415.314L408.651 12.7293Z" fill="#422A20" fill-opacity="0.24"/>
<path d="M624.343 12.7293H621.702L628.365 0H631.006L624.343 12.7293Z" fill="#422A20" fill-opacity="0.24"/>
<path d="M840.881 12.7293H838.24L844.903 0H847.545L840.881 12.7293Z" fill="#422A20" fill-opacity="0.24"/>
<path d="M1056.57 12.7293H1053.93L1060.6 0H1063.24L1056.57 12.7293Z" fill="#422A20" fill-opacity="0.24"/>
<path d="M11.7055 12.7293H9.30444L15.362 0H17.763L11.7055 12.7293Z" fill="#422A20" fill-opacity="0.24"/>
<path d="M228.244 12.7293H225.843L231.9 0H234.301L228.244 12.7293Z" fill="#422A20" fill-opacity="0.24"/>
<path d="M443.936 12.7293H441.535L447.593 0H449.994L443.936 12.7293Z" fill="#422A20" fill-opacity="0.24"/>
<path d="M660.475 12.7293H658.073L664.131 0H666.532L660.475 12.7293Z" fill="#422A20" fill-opacity="0.24"/>
<path d="M876.167 12.7293H873.766L879.824 0H882.225L876.167 12.7293Z" fill="#422A20" fill-opacity="0.24"/>
<path d="M65.84 12.7293H63.439L69.4965 0H71.8975L65.84 12.7293Z" fill="#422A20" fill-opacity="0.24"/>
<path d="M282.378 12.7293H279.977L286.035 0H288.436L282.378 12.7293Z" fill="#422A20" fill-opacity="0.24"/>
<path d="M498.071 12.7293H495.67L501.727 0H504.128L498.071 12.7293Z" fill="#422A20" fill-opacity="0.24"/>
<path d="M714.609 12.7293H712.208L718.266 0H720.667L714.609 12.7293Z" fill="#422A20" fill-opacity="0.24"/>
<path d="M930.302 12.7293H927.901L933.958 0H936.359L930.302 12.7293Z" fill="#422A20" fill-opacity="0.24"/>
<path d="M119.975 12.7293H117.574L123.631 0H126.032L119.975 12.7293Z" fill="#422A20" fill-opacity="0.24"/>
<path d="M336.513 12.7293H334.112L340.169 0H342.57L336.513 12.7293Z" fill="#422A20" fill-opacity="0.24"/>
<path d="M552.205 12.7293H549.804L555.862 0H558.263L552.205 12.7293Z" fill="#422A20" fill-opacity="0.24"/>
<path d="M768.744 12.7293H766.343L772.4 0H774.801L768.744 12.7293Z" fill="#422A20" fill-opacity="0.24"/>
<path d="M984.436 12.7293H982.035L988.093 0H990.494L984.436 12.7293Z" fill="#422A20" fill-opacity="0.24"/>
<path d="M174.349 12.7293H171.708L178.371 0H181.013L174.349 12.7293Z" fill="#422A20" fill-opacity="0.24"/>
<path d="M390.888 12.7293H388.246L394.91 0H397.551L390.888 12.7293Z" fill="#422A20" fill-opacity="0.24"/>
<path d="M606.58 12.7293H603.939L610.602 0H613.243L606.58 12.7293Z" fill="#422A20" fill-opacity="0.24"/>
<path d="M823.118 12.7293H820.477L827.141 0H829.782L823.118 12.7293Z" fill="#422A20" fill-opacity="0.24"/>
<path d="M1038.81 12.7293H1036.17L1042.83 0H1045.47L1038.81 12.7293Z" fill="#422A20" fill-opacity="0.24"/>
<path d="M38.7727 12.7293H36.3717L42.4292 0H44.8302L38.7727 12.7293Z" fill="#422A20" fill-opacity="0.24"/>
<path d="M255.311 12.7293H252.91L258.967 0H261.369L255.311 12.7293Z" fill="#422A20" fill-opacity="0.24"/>
<path d="M471.004 12.7293H468.603L474.66 0H477.061L471.004 12.7293Z" fill="#422A20" fill-opacity="0.24"/>
<path d="M687.542 12.7293H685.141L691.198 0H693.599L687.542 12.7293Z" fill="#422A20" fill-opacity="0.24"/>
<path d="M903.234 12.7293H900.833L906.891 0H909.292L903.234 12.7293Z" fill="#422A20" fill-opacity="0.24"/>
<path d="M92.9073 12.7293H90.5063L96.5638 0H98.9648L92.9073 12.7293Z" fill="#422A20" fill-opacity="0.24"/>
<path d="M309.446 12.7293H307.045L313.102 0H315.503L309.446 12.7293Z" fill="#422A20" fill-opacity="0.24"/>
<path d="M525.138 12.7293H522.737L528.795 0H531.196L525.138 12.7293Z" fill="#422A20" fill-opacity="0.24"/>
<path d="M741.676 12.7293H739.275L745.333 0H747.734L741.676 12.7293Z" fill="#422A20" fill-opacity="0.24"/>
<path d="M957.369 12.7293H954.968L961.025 0H963.426L957.369 12.7293Z" fill="#422A20" fill-opacity="0.24"/>
<path d="M147.282 12.7293H144.641L151.304 0H153.945L147.282 12.7293Z" fill="#422A20" fill-opacity="0.24"/>
<path d="M363.82 12.7293H361.179L367.842 0H370.484L363.82 12.7293Z" fill="#422A20" fill-opacity="0.24"/>
<path d="M579.513 12.7293H576.872L583.535 0H586.176L579.513 12.7293Z" fill="#422A20" fill-opacity="0.24"/>
<path d="M796.051 12.7293H793.41L800.073 0H802.714L796.051 12.7293Z" fill="#422A20" fill-opacity="0.24"/>
<path d="M1011.74 12.7293H1009.1L1015.77 0H1018.41L1011.74 12.7293Z" fill="#422A20" fill-opacity="0.24"/>
<path d="M201.417 12.7293H198.775L205.439 0H208.08L201.417 12.7293Z" fill="#422A20" fill-opacity="0.24"/>
<path d="M417.955 12.7293H415.314L421.977 0H424.618L417.955 12.7293Z" fill="#422A20" fill-opacity="0.24"/>
<path d="M633.647 12.7293H631.006L637.67 0H640.311L633.647 12.7293Z" fill="#422A20" fill-opacity="0.24"/>
<path d="M850.186 12.7293H847.545L854.208 0H856.849L850.186 12.7293Z" fill="#422A20" fill-opacity="0.24"/>
<path d="M1065.88 12.7293H1063.24L1069.9 0H1072.54L1065.88 12.7293Z" fill="#422A20" fill-opacity="0.24"/>
<path d="M20.4041 12.7293H17.7629L24.4262 0H27.0673L20.4041 12.7293Z" fill="#422A20" fill-opacity="0.24"/>
<path d="M236.942 12.7293H234.301L240.965 0H243.606L236.942 12.7293Z" fill="#422A20" fill-opacity="0.24"/>
<path d="M452.635 12.7293H449.994L456.657 0H459.298L452.635 12.7293Z" fill="#422A20" fill-opacity="0.24"/>
<path d="M669.173 12.7293H666.532L673.195 0H675.836L669.173 12.7293Z" fill="#422A20" fill-opacity="0.24"/>
<path d="M884.866 12.7293H882.225L888.888 0H891.529L884.866 12.7293Z" fill="#422A20" fill-opacity="0.24"/>
<path d="M74.5386 12.7293H71.8975L78.5608 0H81.2019L74.5386 12.7293Z" fill="#422A20" fill-opacity="0.24"/>
<path d="M291.077 12.7293H288.436L295.099 0H297.74L291.077 12.7293Z" fill="#422A20" fill-opacity="0.24"/>
<path d="M506.769 12.7293H504.128L510.792 0H513.433L506.769 12.7293Z" fill="#422A20" fill-opacity="0.24"/>
<path d="M723.308 12.7293H720.667L727.33 0H729.971L723.308 12.7293Z" fill="#422A20" fill-opacity="0.24"/>
<path d="M939 12.7293H936.359L943.022 0H945.663L939 12.7293Z" fill="#422A20" fill-opacity="0.24"/>
<path d="M128.673 12.7293H126.032L132.695 0H135.336L128.673 12.7293Z" fill="#422A20" fill-opacity="0.24"/>
<path d="M345.212 12.7293H342.57L349.234 0H351.875L345.212 12.7293Z" fill="#422A20" fill-opacity="0.24"/>
<path d="M560.904 12.7293H558.263L564.926 0H567.567L560.904 12.7293Z" fill="#422A20" fill-opacity="0.24"/>
<path d="M777.442 12.7293H774.801L781.465 0H784.106L777.442 12.7293Z" fill="#422A20" fill-opacity="0.24"/>
<path d="M993.135 12.7293H990.494L997.157 0H999.798L993.135 12.7293Z" fill="#422A20" fill-opacity="0.24"/>
<path d="M183.414 12.7293H181.013L187.07 0H189.471L183.414 12.7293Z" fill="#422A20" fill-opacity="0.24"/>
<path d="M399.952 12.7293H397.551L403.608 0H406.009L399.952 12.7293Z" fill="#422A20" fill-opacity="0.24"/>
<path d="M615.644 12.7293H613.243L619.301 0H621.702L615.644 12.7293Z" fill="#422A20" fill-opacity="0.24"/>
<path d="M832.183 12.7293H829.782L835.839 0H838.24L832.183 12.7293Z" fill="#422A20" fill-opacity="0.24"/>
<path d="M1047.88 12.7293H1045.47L1051.53 0H1053.93L1047.88 12.7293Z" fill="#422A20" fill-opacity="0.24"/>
<path d="M47.4713 12.7293H44.8302L51.4935 0H54.1346L47.4713 12.7293Z" fill="#422A20" fill-opacity="0.24"/>
<path d="M264.01 12.7293H261.369L268.032 0H270.673L264.01 12.7293Z" fill="#422A20" fill-opacity="0.24"/>
<path d="M479.702 12.7293H477.061L483.724 0H486.365L479.702 12.7293Z" fill="#422A20" fill-opacity="0.24"/>
<path d="M696.241 12.7293H693.599L700.263 0H702.904L696.241 12.7293Z" fill="#422A20" fill-opacity="0.24"/>
<path d="M911.933 12.7293H909.292L915.955 0H918.596L911.933 12.7293Z" fill="#422A20" fill-opacity="0.24"/>
<path d="M101.606 12.7293H98.9648L105.628 0H108.269L101.606 12.7293Z" fill="#422A20" fill-opacity="0.24"/>
<path d="M318.144 12.7293H315.503L322.166 0H324.808L318.144 12.7293Z" fill="#422A20" fill-opacity="0.24"/>
<path d="M533.837 12.7293H531.196L537.859 0H540.5L533.837 12.7293Z" fill="#422A20" fill-opacity="0.24"/>
<path d="M750.375 12.7293H747.734L754.397 0H757.038L750.375 12.7293Z" fill="#422A20" fill-opacity="0.24"/>
<path d="M966.068 12.7293H963.427L970.09 0H972.731L966.068 12.7293Z" fill="#422A20" fill-opacity="0.24"/>
<path d="M156.346 12.7293H153.945L160.003 0H162.404L156.346 12.7293Z" fill="#422A20" fill-opacity="0.24"/>
<path d="M372.885 12.7293H370.484L376.541 0H378.942L372.885 12.7293Z" fill="#422A20" fill-opacity="0.24"/>
<path d="M588.577 12.7293H586.176L592.234 0H594.635L588.577 12.7293Z" fill="#422A20" fill-opacity="0.24"/>
<path d="M805.115 12.7293H802.714L808.772 0H811.173L805.115 12.7293Z" fill="#422A20" fill-opacity="0.24"/>
<path d="M1020.81 12.7293H1018.41L1024.46 0H1026.87L1020.81 12.7293Z" fill="#422A20" fill-opacity="0.24"/>
<path d="M210.481 12.7293H208.08L214.137 0H216.538L210.481 12.7293Z" fill="#422A20" fill-opacity="0.24"/>
<path d="M427.019 12.7293H424.618L430.676 0H433.077L427.019 12.7293Z" fill="#422A20" fill-opacity="0.24"/>
<path d="M642.712 12.7293H640.311L646.368 0H648.769L642.712 12.7293Z" fill="#422A20" fill-opacity="0.24"/>
<path d="M859.25 12.7293H856.849L862.907 0H865.308L859.25 12.7293Z" fill="#422A20" fill-opacity="0.24"/>
<path d="M1074.94 12.7293H1072.54L1078.6 0H1081L1074.94 12.7293Z" fill="#422A20" fill-opacity="0.24"/>
</svg>
