<svg width="40" height="40" viewBox="0 0 40 40" fill="none" xmlns="http://www.w3.org/2000/svg">
<path d="M36.3637 0H3.63633C1.62805 0 0 1.62805 0 3.63633V36.3636C0 38.372 1.62805 40 3.63633 40H36.3636C38.372 40 40 38.372 40 36.3637V3.63633C40 1.62805 38.372 0 36.3637 0ZM38.1818 36.3637C38.1818 37.3678 37.3677 38.1819 36.3636 38.1819H3.63633C2.63219 38.1819 1.81813 37.3678 1.81813 36.3637V3.63633C1.81813 2.63219 2.63219 1.81813 3.63633 1.81813H36.3636C37.3677 1.81813 38.1818 2.63219 38.1818 3.63633V36.3637Z" fill="#585259"/>
<path d="M20 9.09082C13.9751 9.09082 9.09094 13.975 9.09094 19.9999C9.09094 26.0248 13.9751 30.9089 20 30.9089C26.0249 30.9089 30.9091 26.0248 30.9091 19.9999C30.9091 13.975 26.0249 9.09082 20 9.09082ZM20 10.9089C22.0777 10.9095 24.0926 11.6218 25.7091 12.9271C24.2355 14.1215 22.624 15.1348 20.9091 15.9454C19.8799 14.2675 18.6597 12.7147 17.2727 11.3181C18.1557 11.0438 19.0754 10.9058 20 10.9089ZM15.4545 12.1181C16.8677 13.4752 18.1073 15.0019 19.1455 16.6636C16.5702 17.6371 13.8439 18.1511 11.0909 18.1818C11.6095 15.6286 13.1984 13.4207 15.4545 12.1181ZM10.9091 19.9999C14.0527 20.0014 17.1692 19.4189 20.1 18.2817C20.4 18.8726 20.6909 19.4726 20.9455 20.0999C17.8317 21.2771 15.1797 23.4255 13.3818 26.2271C11.7948 24.5419 10.9105 22.3147 10.9091 19.9999ZM20 29.0908C18.1238 29.087 16.2947 28.5027 14.7637 27.4181C16.3484 24.8505 18.7399 22.8811 21.5637 21.8181C22.2882 24.036 22.6803 26.3489 22.7273 28.6818C21.8443 28.956 20.9246 29.0939 20 29.0908ZM24.4909 27.8999C24.3937 25.645 23.9963 23.4133 23.3091 21.2636C24.3107 21.0306 25.3354 20.9117 26.3637 20.909C27.2503 20.9205 28.1335 21.0211 29 21.209C28.6232 24.0207 26.9556 26.4953 24.4909 27.8999ZM26.3637 19.0908C25.1378 19.0975 23.9171 19.2502 22.7273 19.5454C22.4546 18.8666 22.1516 18.206 21.8183 17.5636C23.6934 16.6693 25.4519 15.5488 27.0546 14.2271C28.2498 15.6865 28.9616 17.4816 29.0909 19.3635C28.1921 19.1894 27.2791 19.0982 26.3637 19.0908Z" fill="#585259"/>
</svg>
