<svg width="40" height="40" viewBox="0 0 40 40" fill="none" xmlns="http://www.w3.org/2000/svg">
<path d="M36.3637 0H3.63633C1.62805 0 0 1.62805 0 3.63633V36.3636C0 38.372 1.62805 40 3.63633 40H36.3636C38.372 40 40 38.372 40 36.3637V3.63633C40 1.62805 38.372 0 36.3637 0ZM38.1818 36.3637C38.1818 37.3678 37.3677 38.1819 36.3636 38.1819H3.63633C2.63219 38.1819 1.81813 37.3678 1.81813 36.3637V3.63633C1.81813 2.63219 2.63219 1.81813 3.63633 1.81813H36.3636C37.3677 1.81813 38.1818 2.63219 38.1818 3.63633V36.3637Z" fill="#585259"/>
<path d="M18.9226 21.2841C18.4065 20.6054 17.6671 20.1254 16.7084 19.8441C17.4529 19.475 18.0078 18.9912 18.3755 18.3924C18.7433 17.7937 18.9278 17.155 18.9278 16.4763C18.9278 15.7473 18.72 15.0492 18.3058 14.3808C17.8917 13.7124 17.3162 13.2182 16.5846 12.897C15.8529 12.5757 14.8775 12.4131 13.6646 12.4131H7.70972V28.2892H13.7626C14.7742 28.2892 15.6271 28.2015 16.3239 28.0247C17.0207 27.8466 17.6 27.586 18.062 27.2389C18.5239 26.8931 18.9123 26.4002 19.2258 25.7615C19.5394 25.1215 19.6968 24.4312 19.6968 23.6879C19.6968 22.7628 19.4388 21.9628 18.9226 21.2841ZM9.81036 19.0841V14.2879H12.9833C14.1239 14.2879 14.9291 14.3615 15.3987 14.5086C15.8684 14.657 16.2284 14.9305 16.4813 15.3318C16.7342 15.7344 16.8607 16.1976 16.8607 16.7241C16.8607 17.2802 16.7252 17.7421 16.4542 18.1099C16.1833 18.4776 15.7807 18.7421 15.2465 18.9008C14.8426 19.0234 14.1742 19.0854 13.2439 19.0854H9.81036V19.0841ZM17.2078 25.0247C16.9975 25.4118 16.7304 25.7047 16.4065 25.9086C16.0813 26.1099 15.6775 26.2544 15.1936 26.3408C14.92 26.3912 14.4426 26.4183 13.7639 26.4183H9.81036V26.417V20.9589H13.4813C14.4929 20.9589 15.2658 21.0466 15.8039 21.2247C16.342 21.4002 16.7626 21.7086 17.0658 22.1447C17.3691 22.5808 17.5213 23.0957 17.5213 23.6879C17.5213 24.1937 17.4168 24.6376 17.2078 25.0247Z" fill="#585259"/>
<path d="M32.2916 22.5213C32.2916 20.622 31.8039 19.1497 30.8297 18.102C29.8542 17.0516 28.5987 16.5291 27.0606 16.5291C25.4722 16.5291 24.1819 17.0632 23.1845 18.1316C22.1884 19.2013 21.6903 20.702 21.6903 22.6374C21.6903 24.5071 22.1832 25.96 23.1677 26.9974C24.1548 28.0323 25.4877 28.5497 27.1716 28.5497C28.5058 28.5497 29.6026 28.2245 30.4632 27.5755C31.3226 26.9252 31.9097 26.0116 32.2271 24.8348L30.2129 24.5884C29.9174 25.4103 29.5174 26.0103 29.009 26.3858C28.5045 26.7613 27.8955 26.9484 27.1806 26.9484C26.2206 26.9484 25.4193 26.6129 24.7755 25.9419C24.1342 25.2697 23.7781 24.3019 23.7045 23.04H32.2813C32.289 22.809 32.2916 22.6361 32.2916 22.5213ZM23.8129 21.4349V21.4336C23.8761 20.4297 24.2155 19.6297 24.8232 19.0297C25.4348 18.431 26.1884 18.1303 27.0813 18.1303C28.071 18.1303 28.8761 18.5071 29.4968 19.2581C29.8993 19.742 30.1458 20.4671 30.2335 21.4349H23.8129Z" fill="#585259"/>
<path d="M30.249 13.8323H23.7355L23.7187 15.4349H30.2606L30.249 13.8323Z" fill="#585259"/>
</svg>
