<svg width="267" height="142" viewBox="0 0 267 142" fill="none" xmlns="http://www.w3.org/2000/svg">
<path d="M40.7971 53.3446C40.7971 45.9941 40.9007 38.6436 40.6937 31.293C40.6247 28.6013 41.6366 28.1987 44.0055 28.2102C77.7749 28.2792 111.552 28.2792 145.337 28.2102C147.533 28.2102 149.729 28.2102 151.937 28.2102C153.294 28.2102 154.053 28.4748 154.042 30.0852C153.988 39.5255 153.988 48.9773 154.042 58.4405C154.042 60.3156 152.984 60.3271 151.638 60.3271C144.739 60.3271 137.839 60.3271 130.94 60.3271H44.5689C40.7397 60.3271 40.7396 60.3271 40.7856 56.439C42.0275 56.439 43.2695 56.324 44.5114 56.324C78.1812 56.324 111.851 56.324 145.521 56.324C146.843 56.324 149.223 57.3132 149.315 55.1737C149.43 52.712 146.935 53.6092 145.521 53.6092C111.851 53.5555 78.1812 53.5555 44.5114 53.6092C43.281 53.5057 42.039 53.4022 40.7971 53.3446Z" fill="#422A20" fill-opacity="0.2"/>
<path d="M33.8976 139.699C33.0697 139.457 32.0693 139.308 32.2648 138.112C32.4602 136.915 33.5872 136.881 34.5646 136.881C40.0267 136.881 45.4774 136.881 50.9395 136.881C59.5524 136.881 68.1884 136.881 76.7783 136.881C78.3192 136.881 79.3197 136.881 79.7221 134.845C79.9263 133.548 80.5838 132.366 81.5777 131.508C82.5716 130.651 83.8374 130.174 85.1497 130.163C87.6336 130.017 90.1174 129.967 92.6012 130.013C94.0501 130.013 94.6826 129.611 94.6136 128.069C94.4871 125.113 95.5796 121.363 94.1537 119.43C92.7278 117.498 88.7835 118.867 85.9547 118.855C65.6624 118.809 45.3701 118.809 25.0777 118.855C19.0061 118.855 17.0283 116.911 17.0283 110.803C17.0283 78.1417 17.0283 45.4765 17.0283 12.8075C17.0283 6.66478 18.9716 4.75525 25.0777 4.75525H182.663C188.919 4.75525 190.839 6.68778 190.851 12.9685C190.851 14.878 190.851 16.7876 190.851 18.7201C190.851 19.6289 190.782 20.6181 189.701 20.6987C188.62 20.7792 188.033 19.8474 187.999 18.8236C187.999 16.523 187.999 14.2224 187.999 11.9217C188.056 8.47077 187.32 7.55052 183.997 7.55052H23.9163C20.6275 7.55052 19.8801 8.36725 19.6961 11.8412C19.6961 21.6764 19.6156 31.5116 19.6041 41.3584C19.6041 64.288 19.6041 87.2177 19.6041 110.147C19.6041 115.577 20.1101 116.095 25.3537 116.095C65.371 116.095 105.388 116.095 145.406 116.095C146.82 116.095 149.315 115.151 149.281 117.567C149.281 119.753 146.843 118.775 145.509 118.786C135.562 118.878 125.604 118.901 115.611 118.786C113.53 118.786 112.989 119.373 113.139 121.34C113.357 124.089 112.322 127.563 113.656 129.392C114.99 131.221 118.636 129.795 121.269 129.967C125.328 130.22 127.018 131.371 128.088 135.19C128.502 136.685 129.238 136.881 130.537 136.869C134.458 136.869 138.391 136.869 142.312 136.869C170.93 136.869 199.556 136.869 228.189 136.869C229.649 136.869 231.639 136.179 231.938 138.744C230.788 139.895 229.247 139.538 227.844 139.538H37.6119C36.3815 139.572 35.1396 139.653 33.8976 139.699ZM125.731 136.501C125.374 133.556 123.661 132.705 121.292 132.694H86.5641C85.9406 132.633 85.3114 132.704 84.7171 132.902C84.1228 133.1 83.5768 133.421 83.1143 133.844C82.8157 134.088 82.5834 134.404 82.4387 134.762C82.2941 135.12 82.2417 135.508 82.2864 135.891C82.5394 137.042 83.5513 136.49 84.2068 136.49C97.9944 136.513 111.77 136.501 125.731 136.501ZM103.733 130.025C105.549 130.025 107.366 130.025 109.183 130.025C110.333 130.025 110.609 129.691 110.724 128.575C111.724 118.821 111.747 118.821 101.973 118.821C97.1779 118.821 97.178 118.821 97.178 123.549C97.178 130.025 97.178 130.025 103.733 130.025Z" fill="#4C3A4E"/>
<path d="M91.4628 102.498C91.4628 94.9516 91.4628 87.4055 91.3938 79.8709C91.3938 78.0534 91.8308 77.3747 93.7742 77.3863C112.725 77.4476 131.672 77.4476 150.615 77.3863C152.57 77.3863 153.007 78.0879 152.995 79.8824C152.926 88.8626 152.926 97.8389 152.995 106.811C152.995 108.663 152.455 109.273 150.557 109.262C131.607 109.2 112.66 109.2 93.7167 109.262C90.4394 109.262 91.6698 107.11 91.4168 105.569C92.5668 105.569 93.7167 105.454 94.8666 105.454C111.885 105.454 128.901 105.454 145.912 105.454C147.062 105.454 148.775 105.845 148.809 104.028C148.844 102.21 147.096 102.67 145.958 102.59C144.819 102.509 143.474 102.59 142.232 102.59L91.4628 102.498Z" fill="#FDD78E"/>
<path d="M196.106 111.286H186.078C182.238 111.286 182.238 111.286 182.261 107.306C183.342 107.053 185.066 107.548 185.02 105.753C184.974 103.959 183.215 104.706 182.169 104.396C182.169 88.9239 182.261 73.4521 182.169 57.9803C182.169 55.6797 182.79 55.0585 185.067 55.0815C194.438 55.2081 203.822 55.0815 213.205 55.1506C213.205 59.6023 213.274 64.054 213.343 68.5058C213.343 69.5755 213.447 70.8064 214.953 70.6453C216.459 70.4843 216.103 69.38 216.103 68.4712C216.103 64.008 216.172 59.5563 216.207 55.1045C220.128 55.2656 220.024 54.3338 220.024 58.9926C220.024 65.9405 220.024 72.8923 220.024 79.8479C217.253 79.5603 214.275 80.1585 212.193 77.4437C212.018 77.2765 211.806 77.1529 211.574 77.083C211.343 77.013 211.098 76.9987 210.859 77.0411C206.409 78.1914 207.467 75.0281 207.41 72.7274C207.41 72.2558 207.41 71.7727 207.41 71.301C207.318 67.3324 205.271 64.9283 201.97 64.9283C198.67 64.9283 196.6 67.3669 196.543 71.2895C196.543 74.8095 196.543 78.341 196.543 81.8609C196.543 83.2183 196.462 83.8625 194.691 83.6439C194.053 83.5163 193.396 83.518 192.759 83.649C192.121 83.78 191.516 84.0376 190.98 84.4066C190.444 84.7755 189.988 85.2484 189.637 85.7971C189.287 86.3458 189.051 86.9592 188.942 87.601C188.194 91.4086 187.907 95.3082 189.344 99.1042C191.001 103.469 193.278 107.572 196.106 111.286Z" fill="#422A20" fill-opacity="0.2"/>
<path d="M168.002 123.721C169.029 124.439 170.291 124.74 171.532 124.561C177.282 124.561 183.031 124.561 188.781 124.561C189.793 124.561 191.207 124.285 191.161 125.838C191.115 127.391 189.781 127.149 188.723 127.16C182.79 127.16 176.845 127.241 170.911 127.16C166.311 127.08 164.127 124.86 164.127 120.167C164.127 91.5927 164.127 63.0188 164.127 34.4449C164.127 29.4985 166.196 27.543 171.233 27.543C187.332 27.543 203.431 27.543 219.53 27.543C224.52 27.543 226.51 29.556 226.51 34.5254C226.51 46.2816 226.51 58.0379 226.51 69.7941C226.51 70.9445 227.211 72.946 225.21 72.992C223.21 73.038 223.773 71.094 223.762 69.8747C223.762 60.7987 223.67 51.7227 223.762 42.6466C223.762 40.5071 223.221 39.9319 221.059 39.9434C203.833 40.0354 186.585 40.0354 169.313 39.9434C167.323 39.9434 166.737 40.461 166.748 42.4741C166.802 66.5617 166.802 90.6456 166.748 114.726C166.748 116.934 167.392 117.44 169.485 117.394C175.81 117.256 182.134 117.325 188.447 117.394C189.85 117.394 191.552 117.176 191.15 119.522C190.21 119.987 189.15 120.152 188.114 119.994C182.042 119.994 175.982 119.994 169.911 119.994C168.922 119.994 167.542 119.442 167.013 120.408C166.392 121.558 167.07 122.789 168.002 123.721ZM223.578 33.3061C223.578 30.7294 221.876 30.0622 219.806 30.0507C203.477 30.0507 187.148 30.0507 170.819 30.0507C168.646 30.0507 167.128 30.9249 166.967 33.3291C166.645 37.3092 166.645 37.3092 170.612 37.3092H219.863C223.831 37.2977 223.831 37.2977 223.578 33.3061Z" fill="#4C3A4E"/>
<path d="M40.7971 53.3446C42.0391 53.3446 43.281 53.5057 44.5114 53.5057C78.1812 53.5057 111.851 53.5057 145.521 53.5057C146.935 53.5057 149.43 52.6084 149.315 55.0701C149.223 57.2327 146.843 56.2204 145.521 56.2204C111.851 56.2818 78.1812 56.2818 44.5114 56.2204C43.2695 56.2204 42.0275 56.3009 40.7856 56.3354L39.9347 56.2204C37.7958 55.9673 34.921 57.1982 33.6791 55.6338C32.6442 54.3224 33.3457 51.6076 33.3457 49.5141C33.3457 40.6221 33.3457 31.7417 33.3457 22.8612C33.3457 21.1817 33.6446 20.5606 35.5075 20.5606C72.65 20.6219 109.793 20.6219 146.935 20.5606C148.016 20.5606 149.568 20.25 149.442 22.01C149.327 23.5974 147.82 23.3328 146.717 23.3328C135.608 23.3328 124.492 23.3328 113.369 23.3328C88.7719 23.3328 64.1636 23.3328 39.5667 23.3328C36.9104 23.3328 35.979 23.7815 36.1169 26.6688C36.3584 34.1113 36.1974 41.6229 36.1974 49.0194C36.1399 53.8163 36.1399 53.8162 40.7971 53.3446Z" fill="#513F52"/>
<path d="M19.6962 11.7951C19.8802 8.34413 20.6276 7.50439 23.9164 7.50439H183.986C187.309 7.50439 188.045 8.39014 187.988 11.8756L144.405 11.7376C139.058 11.7376 133.711 11.6685 128.376 11.7376C108.827 11.8986 89.1861 11.7951 69.5914 11.8296C52.9635 11.8679 36.3318 11.8564 19.6962 11.7951Z" fill="#FDD78E"/>
<path d="M196.106 111.286C193.324 107.582 191.085 103.5 189.459 99.1617C188.022 95.3657 188.309 91.4661 189.057 87.6585C189.166 87.0167 189.402 86.4033 189.752 85.8546C190.103 85.3059 190.559 84.833 191.095 84.4641C191.631 84.0951 192.236 83.8375 192.874 83.7065C193.511 83.5755 194.168 83.5738 194.806 83.7014C196.577 83.92 196.681 83.2758 196.658 81.9185C196.658 78.3985 196.658 74.867 196.658 71.347C196.658 67.4245 198.831 64.9858 202.085 64.9858C205.34 64.9858 207.432 67.3899 207.524 71.3585C207.524 71.8302 207.524 72.3133 207.524 72.7849C207.582 75.0856 206.524 78.2604 210.974 77.0986C211.213 77.0562 211.458 77.0705 211.689 77.1405C211.921 77.2104 212.133 77.334 212.308 77.5012C214.344 80.216 217.368 79.6178 220.139 79.9054C220.749 80.354 221.577 80.6761 221.933 81.2743C222.818 82.7237 223.75 82.8732 225.383 82.4246C226.114 82.2614 226.873 82.2659 227.603 82.4377C228.332 82.6095 229.013 82.9442 229.595 83.4167C230.177 83.8892 230.644 84.4872 230.962 85.166C231.28 85.8448 231.441 86.5868 231.431 87.3365C231.776 95.3887 232.064 103.441 227.786 110.734C227.194 111.714 226.737 112.771 226.429 113.874C226.084 115.209 225.636 116.589 227.579 117.44C229.12 118.142 228.798 119.879 228.994 121.259C228.994 123.905 228.925 126.539 228.856 129.174C228.856 130.082 229.051 131.267 227.706 131.382C226.188 131.52 226.165 130.232 226.13 129.231C226.027 126.597 226.027 123.951 225.992 121.317C226.291 120.017 225.578 119.545 224.451 119.545C216.712 119.545 208.985 119.545 201.257 119.545C199.878 119.545 199.441 120.224 199.464 121.512C199.464 124.17 199.464 126.838 199.464 129.507C199.464 130.554 199.188 131.543 197.946 131.463C196.922 131.394 196.669 130.439 196.669 129.53C196.669 126.386 196.669 123.242 196.669 120.097C196.619 119.618 196.699 119.134 196.901 118.696C197.104 118.259 197.421 117.884 197.819 117.613C200.533 116.267 199.475 114.749 198.164 113.196C197.578 112.459 197.129 111.562 196.106 111.286ZM199.429 81.6539C199.429 85.2774 199.429 88.9124 199.429 92.5359C199.429 93.4331 199.51 94.2038 198.164 94.2153C196.819 94.2269 196.485 93.7092 196.577 92.5129C196.646 91.5696 196.577 90.6034 196.577 89.6486C196.773 87.6125 195.761 86.4622 193.852 86.4507C191.943 86.4392 191.472 87.8541 191.322 89.6026C190.713 96.8496 193.288 102.946 197.67 108.56C199.475 110.86 202.269 112.655 202.131 116.244C202.131 117.452 203.488 116.969 204.236 116.969C209.111 117.026 213.999 116.888 218.874 117.038C221.715 117.13 224.256 117.325 223.715 113.23C223.729 112.553 223.954 111.898 224.359 111.355C228.683 104.453 229.097 96.7921 228.798 88.9699C228.718 87.0029 228.522 85.0818 226.13 85.0243C223.911 85.0243 223.382 86.7153 223.531 88.6478C223.623 89.6831 223.359 90.2123 222.152 90.2008C220.944 90.1892 220.668 89.6831 220.714 88.6363C220.76 87.5895 220.714 86.3357 220.714 85.1854C220.758 84.8239 220.722 84.4573 220.61 84.111C220.498 83.7647 220.312 83.4469 220.065 83.1798C219.817 82.9127 219.515 82.7027 219.178 82.5643C218.842 82.426 218.479 82.3626 218.115 82.3786C217.752 82.3555 217.389 82.4128 217.051 82.5463C216.713 82.6798 216.408 82.8863 216.159 83.1511C215.91 83.4158 215.722 83.7323 215.609 84.0779C215.496 84.4236 215.46 84.7899 215.505 85.1508C215.505 85.9101 215.505 86.6808 215.505 87.4515C215.574 88.5098 215.217 88.9814 214.056 88.9929C212.895 89.0044 212.619 88.4753 212.642 87.44C212.699 85.818 212.642 84.1961 212.642 82.5741C212.642 80.9522 211.975 79.8019 210.192 79.7213C208.226 79.6293 207.467 80.7911 207.433 82.5856C207.433 83.6324 207.433 84.6907 207.433 85.7375C207.433 86.7843 207.72 87.6585 206.145 87.7161C204.569 87.7736 204.592 86.7728 204.604 85.6915C204.604 80.8142 204.604 75.9483 204.604 71.0825C204.604 69.1959 204.075 67.7235 202.016 67.7235C199.958 67.7235 199.337 69.1844 199.36 71.0595C199.498 74.5909 199.429 78.1224 199.429 81.6539Z" fill="#513F52"/>
<path d="M91.4628 102.498H142.22C143.462 102.498 144.704 102.498 145.946 102.498C147.188 102.498 148.821 102.06 148.798 103.936C148.775 105.811 147.062 105.362 145.9 105.362C128.889 105.362 111.874 105.362 94.8551 105.362C93.7052 105.362 92.5553 105.442 91.4054 105.477C91.0259 105.477 90.6464 105.339 90.2554 105.327C84.6898 105.201 84.6898 105.201 84.6898 99.5068C84.6898 90.7184 84.7703 81.9299 84.6898 73.1415C84.6898 70.9444 85.3223 70.4728 87.4266 70.4843C106.86 70.5648 126.294 70.4843 145.728 70.4843C146.399 70.4668 147.071 70.4899 147.74 70.5533C148.045 70.5533 148.338 70.6745 148.553 70.8902C148.769 71.1059 148.89 71.3985 148.89 71.7036C148.921 71.871 148.914 72.0432 148.87 72.2076C148.826 72.372 148.746 72.5247 148.636 72.6545C148.526 72.7844 148.389 72.8882 148.234 72.9585C148.079 73.0287 147.91 73.0638 147.74 73.061C146.789 73.1646 145.833 73.2107 144.877 73.199C126.696 73.199 108.505 73.199 90.3129 73.199C88.0131 73.199 87.4267 73.8087 87.4727 76.0518C87.6106 83.7014 87.4727 91.3395 87.4727 98.9891C87.4727 102.785 87.4726 102.785 91.4628 102.498Z" fill="#594857"/>
<path d="M39.6934 105.569L39.4174 105.5C37.3475 105.097 34.5762 106.363 33.3458 104.925C32.1154 103.487 32.9318 100.542 32.9203 98.276C32.8513 90.0627 32.9203 81.8495 32.8398 73.6247C32.8398 71.3241 33.2653 70.5534 35.7491 70.5764C47.2483 70.7259 58.7476 70.7029 70.2468 70.5764C72.4317 70.5764 73.3976 71.0135 73.0872 73.3486C73.0069 74.6828 73.0299 76.0211 73.1562 77.3517C73.1562 85.7376 72.9952 94.1234 73.1562 102.498C73.1562 104.913 72.4432 105.489 70.1088 105.465C59.9205 105.408 49.8012 105.523 39.6934 105.569ZM70.1088 77.3747C70.4078 73.2451 70.4078 73.2451 66.2566 73.2451C56.8962 73.2451 47.5473 73.2451 38.1984 73.2451C36.2321 73.2451 35.5881 73.6937 35.6226 75.7413C35.7491 83.4599 35.6226 91.1786 35.6801 98.8857C35.6801 102.854 35.6801 102.854 39.6704 102.59C49.1918 102.59 58.7246 102.647 68.246 102.739C69.7064 102.739 70.2813 102.337 70.2583 100.818C70.1663 92.9731 70.1548 85.1739 70.1088 77.3747Z" fill="#513F52"/>
<path d="M216.275 55.1046C216.275 59.5563 216.275 64.008 216.172 68.4713C216.172 69.38 216.356 70.5418 215.022 70.6454C213.688 70.7489 213.424 69.5756 213.412 68.5058C213.343 64.054 213.32 59.6023 213.274 55.1506C213.769 50.1352 213.769 50.1352 208.87 50.1352C199.314 50.1352 189.758 50.2962 180.202 50.1352C177.719 50.1352 177.454 50.9519 177.466 53.0225C177.535 68.6668 177.466 84.3111 177.466 99.9555C177.466 104.557 177.466 104.557 182.18 104.419C183.227 104.729 184.986 103.89 185.032 105.776C185.078 107.663 183.353 107.076 182.272 107.329C181.605 107.271 180.938 107.179 180.283 107.168C174.706 107.099 174.706 107.099 174.706 101.416C174.706 84.2997 174.706 67.1944 174.706 50.0892C174.706 47.9956 175.154 47.3284 177.374 47.3399C189.532 47.455 201.694 47.455 213.861 47.3399C216.011 47.3399 216.459 48.0991 216.31 49.9857C216.126 51.6536 216.264 53.3791 216.275 55.1046Z" fill="#594857"/>
<path d="M33.8977 139.699C35.1396 139.699 36.3816 139.572 37.612 139.572H227.936C229.339 139.572 230.834 139.917 232.029 138.779C232.926 138.882 233.846 139.043 233.708 140.24C233.593 141.217 232.754 141.298 231.96 141.309H230.477C166.028 141.309 101.571 141.309 37.106 141.309C35.9331 141.275 34.0357 142.138 33.8977 139.699Z" fill="#FDD78E"/>
<path d="M225.992 121.305C225.992 123.94 225.992 126.585 226.13 129.22C226.13 130.232 226.13 131.52 227.706 131.371C229.051 131.256 228.856 130.071 228.856 129.162C228.925 126.528 228.948 123.894 228.994 121.248C230.718 122.065 229.764 123.606 229.799 124.768C229.879 127.218 230.879 130.393 229.431 131.957C227.982 133.522 224.566 132.486 222.025 132.532C216.275 132.624 210.388 132.532 204.569 132.59C202.89 132.59 202.12 132.187 202.269 130.37C202.398 128.071 202.398 125.767 202.269 123.468C202.177 121.719 202.821 121.167 204.569 121.167C211.676 121.317 218.84 121.282 225.992 121.305ZM223.577 123.318C223.516 123.007 223.34 122.731 223.085 122.543C222.829 122.356 222.512 122.271 222.198 122.306C221.289 122.306 220.783 122.778 220.875 123.721C220.899 124.049 221.051 124.354 221.299 124.569C221.547 124.785 221.87 124.893 222.198 124.871C223.025 124.917 223.577 124.354 223.577 123.318ZM217.011 124.94C217.851 124.71 218.345 124.216 218.161 123.307C217.977 122.398 217.437 122.26 216.701 122.329C215.965 122.398 215.436 122.778 215.551 123.583C215.551 123.77 215.589 123.956 215.662 124.128C215.736 124.3 215.844 124.455 215.979 124.584C216.115 124.713 216.275 124.814 216.451 124.879C216.626 124.944 216.813 124.973 217 124.963L217.011 124.94Z" fill="#FDD78E"/>
<path d="M39.6933 105.569C49.8011 105.569 59.9204 105.408 70.0397 105.488C72.3396 105.488 73.1216 104.936 73.0871 102.521C72.9721 94.1463 73.0871 85.7605 73.0871 77.3747C76.9968 77.4782 76.9968 77.4782 76.9968 81.4353C76.9968 89.8211 76.9163 98.1955 76.9968 106.581C76.9968 108.767 76.3183 109.296 74.214 109.273C63.8646 109.181 53.6073 109.273 43.2925 109.273C39.6932 109.227 39.6933 109.227 39.6933 105.569Z" fill="#FDD78E"/>
<path d="M168.002 123.721C167.07 122.789 166.392 121.558 167.024 120.42C167.553 119.453 168.933 120.006 169.922 120.006C175.994 120.006 182.054 120.006 188.125 120.006C189.162 120.163 190.221 119.998 191.161 119.534C191.885 120.282 192.794 120.972 192.104 122.214C191.414 123.457 190.437 123.364 189.356 123.364H171.359C170.228 123.182 169.069 123.306 168.002 123.721Z" fill="#FDD78E"/>
<path d="M240.826 139.71C239.86 139.515 238.872 139.319 239.159 137.973C239.378 136.996 240.205 136.996 240.976 136.996C244.771 136.996 248.565 136.996 252.36 136.996C253.694 136.996 254.28 137.536 254.349 138.79C253.625 139.825 252.533 139.595 251.521 139.607C247.987 139.645 244.422 139.68 240.826 139.71Z" fill="#4C3A4E"/>
<path d="M247.416 7.02136C249.439 7.41247 249.451 8.67782 248.358 9.87415C246.174 12.2745 243.874 14.5751 241.459 16.7761C240.171 17.9264 239.159 17.4777 239.01 15.6257L247.416 7.02136Z" fill="#FDD78E"/>
<path d="M240.826 139.711C244.391 139.711 247.956 139.664 251.521 139.572C252.532 139.572 253.625 139.791 254.349 138.756C255.258 138.825 256.143 139.02 256.028 140.182C255.913 141.344 255.062 141.528 254.165 141.54C250.394 141.54 246.61 141.54 242.839 141.54C241.781 141.516 240.826 141.148 240.826 139.711Z" fill="#FDD78E"/>
<path d="M1.73431 139.722C0.756867 139.549 -0.220607 139.342 0.0438763 137.997C0.308359 136.651 1.28583 137.019 2.09078 137.019C5.70155 137.019 9.30079 137.019 12.9116 137.019C14.211 137.019 15.2114 137.237 15.1424 138.813C14.395 139.849 13.2795 139.572 12.2676 139.595C8.76033 139.641 5.24158 139.676 1.73431 139.722Z" fill="#4C3A4E"/>
<path d="M247.415 7.02127L239.021 15.6486C236.721 15.3496 236.721 14.2338 238.101 12.8304C240.263 10.5297 242.517 8.40165 244.725 6.20455C246.116 4.83567 247.024 5.11175 247.415 7.02127Z" fill="#4C3A4E"/>
<path d="M242.218 25.875C241.264 25.6219 240.298 25.3458 240.516 24.0575C240.723 22.9072 241.666 22.9992 242.517 22.9992C244.817 22.9992 247.048 22.9992 249.313 22.9992C250.601 22.9992 251.279 23.4478 251.279 24.7592C250.647 25.9095 249.566 25.783 248.508 25.7945L242.218 25.875Z" fill="#594857"/>
<path d="M229.327 11.0819C228.028 11.0819 227.51 10.4032 227.545 9.10332C227.614 6.80268 227.545 4.58257 227.545 2.31645C227.545 1.45371 227.487 0.52195 228.603 0.30339C229.902 0.0618235 230.144 1.09711 230.431 2.00586C230.431 3.43225 230.431 4.87015 230.305 6.28504C230.155 7.91849 231.052 9.782 229.327 11.0819Z" fill="#594857"/>
<path d="M1.73438 139.722C5.18414 139.722 8.76037 139.641 12.2676 139.572C13.2796 139.572 14.395 139.825 15.1424 138.79C16.0854 138.79 16.8788 139.066 16.7178 140.263C16.5568 141.459 15.7404 141.321 14.9929 141.321C11.1867 141.321 7.36895 141.321 3.56271 141.321C2.45879 141.309 1.64239 141.01 1.73438 139.722Z" fill="#FDD78E"/>
<path d="M229.327 11.0819C231.063 9.78201 230.167 7.91849 230.328 6.28504C230.466 4.87015 230.42 3.43225 230.454 2.00586C231.178 2.00586 231.937 2.27043 231.96 2.98363C232.052 5.88243 232.041 8.73522 231.96 11.6915C231.96 12.4162 231.247 12.7498 230.5 12.6923C229.465 12.6233 229.327 11.8756 229.327 11.0819Z" fill="#FDD78E"/>
<path d="M242.218 25.875L248.508 25.783C249.566 25.783 250.647 25.8635 251.279 24.7477C252.245 24.7477 252.97 25.0468 252.889 26.1971C252.894 26.3641 252.865 26.5303 252.804 26.6858C252.743 26.8413 252.651 26.9829 252.534 27.1021C252.417 27.2213 252.277 27.3157 252.123 27.3796C251.968 27.4434 251.803 27.4755 251.636 27.4739C248.899 27.4739 246.174 27.5545 243.437 27.4739C242.574 27.4509 242.183 26.7492 242.218 25.875Z" fill="#FDD78E"/>
<path d="M261.525 139.722C260.582 139.538 259.593 139.377 259.823 138.031C260.053 136.685 260.973 136.95 261.813 137.007C263.146 137.099 265.067 136.271 265.136 138.779C264.147 140.113 262.675 139.296 261.525 139.722Z" fill="#4C3A4E"/>
<path d="M25.9402 138.802C26.8946 138.802 27.6996 139.078 27.5616 140.263C27.4581 141.217 26.6417 141.47 25.8827 141.493C24.3419 141.493 22.433 142.138 22.088 139.687C23.3529 139.331 24.8823 140.067 25.9402 138.802Z" fill="#FDD78E"/>
<path d="M25.9402 138.802C24.8822 140.067 23.3529 139.331 22.088 139.687C21.1565 139.572 20.3975 139.25 20.5355 138.1C20.6735 136.95 21.6855 136.95 22.5019 137.03C23.8703 137.122 25.7907 136.306 25.9402 138.802Z" fill="#4C3A4E"/>
<path d="M261.525 139.722C262.675 139.296 264.193 140.113 265.136 138.779C266.056 138.848 266.861 139.043 266.723 140.24C266.585 141.436 265.768 141.39 265.032 141.263C263.721 141.033 261.721 142.287 261.525 139.722Z" fill="#FDD78E"/>
<path d="M125.731 136.501C111.771 136.501 97.9945 136.501 84.2184 136.501C83.563 136.501 82.5511 136.996 82.2981 135.903C82.2533 135.52 82.3056 135.131 82.4503 134.773C82.595 134.415 82.8274 134.1 83.126 133.855C83.5885 133.433 84.1345 133.112 84.7288 132.914C85.323 132.716 85.9523 132.644 86.5758 132.705H121.303C123.661 132.705 125.374 133.556 125.731 136.501Z" fill="#FBFAFA"/>
<path d="M103.733 130.025C97.178 130.025 97.1779 130.025 97.1779 123.56C97.1779 118.832 97.1779 118.832 101.973 118.832C111.747 118.832 111.724 118.832 110.724 128.587C110.609 129.737 110.276 130.071 109.183 130.036C107.366 129.979 105.549 130.025 103.733 130.025Z" fill="#FBFAFA"/>
<path d="M182.18 104.396C177.466 104.58 177.466 104.58 177.466 99.9324C177.466 84.288 177.466 68.6437 177.466 52.9994C177.466 50.9288 177.719 50.0661 180.202 50.1121C189.758 50.2961 199.314 50.1121 208.87 50.1121C213.769 50.1121 213.769 50.1121 213.274 55.1275C203.891 55.1275 194.507 55.185 185.136 55.0585C182.836 55.0585 182.226 55.6911 182.238 57.9573C182.261 73.452 182.18 88.9238 182.18 104.396Z" fill="#FBFAFA"/>
<path d="M223.577 33.3061C223.842 37.2977 223.842 37.2977 219.863 37.2977H170.601C166.633 37.2977 166.633 37.2977 166.955 33.3176L223.577 33.3061Z" fill="#FBFAFA"/>
<path d="M223.577 33.3061H166.955C167.116 30.9019 168.634 30.0392 170.807 30.0276C187.136 30.0276 203.465 30.0276 219.794 30.0276C221.864 30.0622 223.577 30.7293 223.577 33.3061Z" fill="#FDD78E"/>
<path d="M199.429 81.6539C199.429 78.1225 199.429 74.591 199.429 71.0595C199.429 69.1845 200.05 67.7121 202.085 67.7236C204.121 67.7351 204.684 69.196 204.673 71.0825C204.615 75.9483 204.673 80.8142 204.673 85.6915C204.673 86.7728 204.523 87.7851 206.214 87.7161C207.904 87.6471 207.479 86.6348 207.502 85.7376C207.525 84.8403 207.502 83.6325 207.502 82.5857C207.502 80.7912 208.295 79.6294 210.261 79.7214C212.044 79.8019 212.745 80.8717 212.711 82.5742C212.676 84.2767 212.711 85.8181 212.711 87.44C212.711 88.4753 212.929 89.0045 214.125 88.993C215.321 88.9815 215.643 88.5098 215.574 87.4515C215.574 86.6923 215.574 85.9216 215.574 85.1509C215.529 84.79 215.565 84.4236 215.678 84.078C215.791 83.7323 215.979 83.4158 216.228 83.1511C216.477 82.8864 216.782 82.6799 217.12 82.5464C217.458 82.4128 217.822 82.3556 218.184 82.3786C218.548 82.3626 218.911 82.426 219.247 82.5644C219.584 82.7027 219.886 82.9128 220.134 83.1799C220.381 83.4469 220.567 83.7647 220.679 84.111C220.792 84.4574 220.827 84.824 220.783 85.1854C220.783 86.3357 220.783 87.486 220.783 88.6364C220.783 89.7867 221.048 90.1778 222.221 90.2008C223.394 90.2238 223.693 89.6832 223.601 88.6479C223.451 86.7153 223.98 84.9668 226.199 85.0244C228.591 85.0819 228.787 87.0029 228.867 88.97C229.166 96.7921 228.752 104.453 224.428 111.355C224.023 111.898 223.798 112.553 223.785 113.23C224.325 117.325 221.784 117.13 218.943 117.038C214.068 116.888 209.18 117.038 204.305 116.969C203.557 116.969 202.154 117.452 202.2 116.244C202.361 112.655 199.544 110.872 197.739 108.56C193.358 102.946 190.839 96.8496 191.391 89.6026C191.541 87.8541 192.001 86.4392 193.921 86.4508C195.841 86.4623 196.842 87.6011 196.646 89.6486C196.554 90.6034 196.646 91.5697 196.646 92.5129C196.554 93.6633 196.934 94.2154 198.233 94.2154C199.533 94.2154 199.498 93.4332 199.498 92.5359C199.429 88.9124 199.429 85.2774 199.429 81.6539Z" fill="#FBFAFA"/>
<path d="M70.1088 77.3746C70.1088 85.1738 70.1663 92.973 70.2583 100.772C70.2583 102.291 69.7063 102.705 68.2459 102.693C58.7245 102.601 49.1917 102.59 39.6703 102.544C39.6703 95.1011 39.7738 87.5895 39.6703 80.2044C39.6703 77.9038 40.4178 77.3516 42.6026 77.3746C51.7445 77.4667 60.9324 77.3976 70.1088 77.3746Z" fill="#FDD78E"/>
<path d="M70.1087 77.3748C60.9093 77.3748 51.7099 77.4668 42.5681 77.3748C40.3832 77.3748 39.5897 77.8694 39.6357 80.2046C39.7737 87.6471 39.6357 95.1587 39.6357 102.544C35.6455 102.808 35.6455 102.808 35.6455 98.8397C35.6455 91.1326 35.7145 83.414 35.588 75.6953C35.588 73.6478 36.1975 73.1761 38.1638 73.1992C47.5127 73.2912 56.8615 73.1992 66.2219 73.1992C70.4076 73.2452 70.4076 73.2452 70.1087 77.3748Z" fill="#FBFAFA"/>
<path d="M223.578 123.318C223.578 124.331 223.037 124.894 222.198 124.929C221.87 124.951 221.547 124.842 221.299 124.627C221.051 124.411 220.899 124.106 220.875 123.779C220.783 122.835 221.289 122.364 222.198 122.364C222.505 122.327 222.814 122.403 223.069 122.579C223.323 122.755 223.504 123.018 223.578 123.318Z" fill="#594857"/>
<path d="M217 124.963C216.812 124.978 216.623 124.953 216.445 124.892C216.267 124.83 216.104 124.733 215.965 124.605C215.826 124.478 215.714 124.324 215.637 124.152C215.56 123.98 215.519 123.794 215.516 123.606C215.516 122.801 215.965 122.456 216.666 122.352C217.368 122.249 217.989 122.513 218.127 123.33C218.265 124.147 217.828 124.733 217 124.963Z" fill="#594857"/>
</svg>
