<svg width="268" height="150" viewBox="0 0 268 150" fill="none" xmlns="http://www.w3.org/2000/svg">
<path d="M36.2708 145.508C36.4485 144.565 36.2504 143.591 35.7189 142.793C32.397 135.749 31.9527 127.688 34.4802 120.322C37.0077 112.956 42.3078 106.866 49.2535 103.348C50.1734 102.877 51.2888 102.624 51.4268 101.324C51.8063 101.324 52.1858 101.393 52.5767 101.473C64.076 104.234 74.4253 98.1949 77.8751 86.9563C78.91 83.5054 78.2545 80.158 78.45 76.7645C80.8419 78.0644 80.8189 80.5836 81.1179 82.7117C81.5575 85.0689 81.5268 87.4899 81.0275 89.8352C80.5282 92.1805 79.5702 94.4039 78.2085 96.3774C76.8401 98.264 77.4841 99.0577 79.0135 100.196C82.7204 102.835 85.8614 106.189 88.2512 110.061C90.6409 113.934 92.231 118.246 92.9276 122.743C94.1574 129.37 93.2556 136.216 90.3517 142.298C89.6731 143.234 89.3142 144.363 89.3283 145.519L36.2708 145.508ZM90.3172 128.517C90.3672 126.723 90.166 124.93 89.7193 123.191C88.2589 115.22 83.9697 108.939 77.8521 103.843C77.0816 103.21 76.2077 102.612 75.3682 103.636C74.5288 104.66 75.5867 105.35 76.2422 105.937C77.8285 107.169 79.2885 108.556 80.6004 110.078C87.4999 118.947 89.4203 128.69 85.798 139.411C85.4646 140.4 84.8551 141.596 86.2465 142.114C87.6379 142.632 87.9714 141.332 88.3279 140.354C89.7252 136.569 90.3773 132.55 90.2483 128.517H90.3172Z" fill="#422A20" fill-opacity="0.2"/>
<path d="M193.81 51.6301C193.81 55.1501 193.868 58.6815 193.672 62.2015C193.569 64.2031 194.351 64.5021 196.122 64.5021C206.736 64.4331 217.338 64.5021 227.94 64.5021C234.84 64.5021 236.553 66.2391 236.553 73.164C236.553 78.7891 236.622 84.4142 236.553 90.0392C236.553 91.8337 237.105 92.4549 238.853 92.2593C239.902 92.196 240.954 92.196 242.004 92.2593C247.247 92.2593 248.788 93.6397 249.524 98.7701L249.421 108.191C249.421 113.264 247.397 115.254 242.291 115.3C236.672 115.346 231.045 115.377 225.41 115.392C219.258 115.001 217.89 113.563 217.89 107.513C217.89 104.464 217.89 101.404 217.89 98.31C217.947 94.4909 219.81 92.4664 223.639 92.2708C226.399 92.1328 229.182 92.1328 231.942 92.2708C233.609 92.3398 234.023 91.7532 234 90.1657C233.92 84.0576 234 77.9494 234 71.8527C234 68.4017 232.781 67.2514 229.021 67.2514C221.765 67.2514 214.498 67.2514 207.23 67.2514C203.504 67.2514 199.767 67.3319 196.053 67.2514C194.362 67.2514 193.626 67.5735 193.753 69.4255C193.937 72.0942 192.879 75.4302 194.144 77.2592C195.524 79.2722 199.077 77.7883 201.664 77.9494C205.804 78.2139 207.586 79.8589 208.207 84.3681C208.207 87.7041 208.207 91.04 208.15 94.3874C208.15 98.8391 205.85 101.048 201.446 101.094C195.616 101.163 189.774 101.151 183.944 101.186C178.654 100.829 176.849 98.9542 176.803 93.6512C176.803 90.5914 176.711 87.543 176.803 84.4487C176.975 80.112 179.103 78.0529 183.45 77.9264C185.45 77.8688 187.463 77.9264 189.464 77.9264C190.694 77.9264 191.177 77.5237 191.143 76.2814C191.143 73.9808 191.028 71.6801 191.143 69.3795C191.258 67.5735 190.602 67.0789 188.843 67.1479C183.68 67.2514 178.493 67.1479 173.342 67.1479C172.295 67.1479 170.708 67.539 170.789 65.7675C170.858 64.3411 172.261 64.5137 173.273 64.5137C178.528 64.5137 183.795 64.4446 189.05 64.5137C190.637 64.5137 191.235 64.1341 191.154 62.4661C190.982 58.8541 190.993 55.2306 190.936 51.6071C191.476 47.558 191.476 47.5465 187.486 47.558C185.186 47.558 182.955 47.558 180.69 47.6385C174.94 47.2704 173.135 45.3378 173.123 39.5863V32.2127C173.123 26.6567 175.182 24.5746 180.655 24.5631C188.49 24.5631 196.317 24.5631 204.137 24.5631C209.277 24.5631 210.898 25.9665 211.761 31.0509C211.761 34.5019 211.761 37.9528 211.611 41.3347C211.462 45.2688 209.196 47.4774 205.264 47.581C202.688 47.65 200.1 47.581 197.525 47.581C193.615 47.604 193.615 47.604 193.81 51.6301ZM184.496 98.0339C190.418 98.0339 196.34 98.172 202.262 98.2065C202.674 98.2463 203.089 98.1928 203.477 98.0498C203.865 97.9068 204.216 97.6781 204.503 97.3807C204.791 97.0832 205.007 96.7248 205.137 96.332C205.267 95.9392 205.306 95.5222 205.252 95.1121C205.252 91.6612 205.172 88.2102 205.114 84.7592C205.689 82.2861 204.735 80.6526 202.216 80.5951C195.616 80.4686 189.027 80.5146 182.426 80.5951C182.013 80.5739 181.6 80.6415 181.215 80.7932C180.83 80.945 180.482 81.1775 180.195 81.475C179.907 81.7725 179.686 82.1282 179.548 82.5181C179.409 82.908 179.355 83.3231 179.39 83.7355C179.39 87.543 179.241 91.3621 179.39 95.1696C179.563 97.9994 181.771 99.0807 184.507 98.0339H184.496ZM225.387 112.482C231.309 112.482 237.231 112.585 243.142 112.585C245.442 112.585 246.661 111.435 246.592 109.019C246.5 105.568 246.523 102.118 246.488 98.7241C246.925 96.1819 245.66 94.813 243.257 94.7785C236.772 94.6788 230.29 94.6788 223.812 94.7785C221.765 94.7785 220.5 95.8483 220.604 98.2295C220.742 101.554 220.604 104.89 220.604 108.226C220.661 112.137 221.409 112.816 225.399 112.482H225.387ZM180.759 44.7972C188.946 44.7972 197.122 44.9007 205.31 44.9122C205.791 44.9677 206.278 44.9135 206.735 44.7537C207.192 44.5939 207.607 44.3327 207.949 43.9897C208.291 43.6466 208.551 43.2306 208.709 42.7728C208.867 42.315 208.92 41.8273 208.863 41.3463C208.863 37.8953 208.794 34.5134 208.759 31.0969C209.116 28.3592 207.609 27.1168 205.137 27.0938C196.628 27.0018 188.107 27.0938 179.597 27.0938C179.138 27.0396 178.672 27.0843 178.231 27.2251C177.79 27.3659 177.385 27.5994 177.042 27.9099C176.699 28.2204 176.426 28.6008 176.242 29.0255C176.058 29.4502 175.967 29.9094 175.975 30.3722C175.849 34.1798 175.814 38.0103 175.975 41.8754C176.102 44.3486 178.148 45.4989 180.759 44.7972Z" fill="#4C3A4E"/>
<path d="M36.2709 145.507H89.2708C93.9625 145.507 98.6542 145.507 103.334 145.588C105.036 145.588 105.404 145.024 105.381 143.448C105.301 138.007 105.381 132.566 105.381 127.114C105.381 126.539 105.381 125.964 105.381 125.4C105.381 124.376 105.6 123.295 106.807 123.318C108.015 123.341 108.21 124.376 108.21 125.423C108.21 131.174 108.325 136.926 108.153 142.62C108.072 144.99 108.67 145.622 111.096 145.611C150.063 145.527 189.031 145.504 227.998 145.542C229.711 145.542 231.378 145.369 232.425 147.244C232.678 147.693 233.816 147.705 233.379 148.613C233.046 149.315 232.229 149.177 231.574 149.177H216.625C156.89 149.177 97.1517 149.2 37.4093 149.246C35.9919 149.154 34.6002 148.823 33.2926 148.268C32.5336 148.015 31.8091 147.728 31.9816 146.715C32.1541 145.703 32.8786 145.565 33.695 145.565L36.2709 145.507Z" fill="#594857"/>
<path d="M116.444 116.934C110.935 113.853 106.197 109.561 102.587 104.384C89.2019 84.5866 102.058 55.5756 125.769 52.2282C141.937 49.9276 157.139 58.1178 162.981 72.2437C165.054 77.0558 166.009 82.2759 165.771 87.5106C165.534 92.7453 164.112 97.8577 161.613 102.463C164.131 102.566 165.223 104.211 166.143 106.063C166.04 107.938 164.453 110.124 167.293 111.389C173.043 117.141 178.712 122.892 184.462 128.644C189.234 133.395 189.337 134.844 185.14 139.894C180.701 143.287 178.861 143.149 174.871 139.158C169.018 133.314 163.084 127.54 157.346 121.592C155.828 120.016 154.449 119.384 152.448 120.269C150.746 119.763 149.124 118.97 148.641 117.175C148.216 115.576 147.491 116.151 146.675 116.577C142.457 118.567 137.899 119.738 133.244 120.028C127.874 120.488 122.895 118.958 117.881 117.589C117.748 117.336 117.535 117.134 117.275 117.015C117.014 116.896 116.722 116.868 116.444 116.934ZM182.311 138.433C185.83 135.408 186.186 134.234 183.967 132.003C177.769 125.78 171.49 119.637 165.258 113.46C164.211 111.631 163.13 111.286 161.659 113.126C160.603 114.367 159.449 115.521 158.209 116.577C157.3 117.405 157.3 117.98 158.209 118.878C164.809 125.388 171.329 131.957 177.907 138.433C179.344 139.859 180.874 140.17 182.311 138.433ZM105.749 103.797C105.841 104.315 106.048 104.648 106.646 104.418C106.186 105.35 106.991 105.845 107.44 106.362C110.24 109.707 113.717 112.42 117.642 114.323C121.566 116.226 125.849 117.277 130.208 117.405C137.128 117.702 143.954 115.711 149.63 111.74C155.306 107.769 159.517 102.038 161.613 95.4341C166.051 82.125 160.083 65.7904 148.86 60.1309C148.722 59.0611 147.71 58.9115 147.02 58.5204C143.187 56.2951 138.924 54.9105 134.515 54.4585C130.106 54.0064 125.652 54.4971 121.447 55.8982C117.242 57.2992 113.382 59.5785 110.125 62.585C106.868 65.5914 104.286 69.2563 102.552 73.3365C97.9528 83.9655 98.8152 94.2838 105.749 103.831V103.797ZM153.057 117.267C153.345 117.164 153.69 117.141 153.874 116.957C156.909 113.931 159.968 110.917 162.935 107.823C163.09 107.663 163.206 107.47 163.276 107.258C163.346 107.046 163.368 106.822 163.339 106.601C163.31 106.38 163.232 106.168 163.111 105.981C162.989 105.795 162.827 105.638 162.636 105.522C162.29 105.261 161.855 105.146 161.425 105.202C160.995 105.258 160.604 105.48 160.336 105.821C157.427 108.559 154.587 111.389 151.746 114.207C151.45 114.46 151.256 114.812 151.201 115.198C151.146 115.583 151.234 115.975 151.447 116.301C151.597 116.6 151.829 116.85 152.116 117.022C152.404 117.193 152.734 117.278 153.069 117.267H153.057Z" fill="#513F52"/>
<path d="M14.4913 36.8255C14.4913 39.8854 14.3763 42.9337 14.3763 46.0281C14.3763 65.9055 14.3763 85.783 14.3763 105.661C14.3763 106.431 14.3763 107.202 14.3763 107.961C14.3763 108.72 13.9048 109.514 13.0079 109.468C12.6686 109.426 12.355 109.265 12.1217 109.015C11.8885 108.765 11.7504 108.441 11.7315 108.099C11.6563 107.335 11.6332 106.566 11.6625 105.799C11.6625 83.1526 11.6625 60.4991 11.6625 37.8378C11.6625 31.6261 13.4679 29.7856 19.6545 29.7856C46.762 29.7856 73.8657 29.7856 100.966 29.7856C102.284 29.7771 103.582 30.1041 104.739 30.7357C105.896 31.3674 106.874 32.283 107.58 33.3964C108.286 34.5098 108.697 35.7846 108.775 37.1008C108.853 38.417 108.595 39.7315 108.026 40.9206C107.928 41.1906 107.753 41.4255 107.521 41.5955C107.29 41.7655 107.013 41.8629 106.727 41.8754C106.385 41.8667 106.059 41.7269 105.818 41.485C105.576 41.2431 105.436 40.9175 105.427 40.5755C105.266 39.3447 105.266 38.1024 105.197 36.86C105.197 33.4091 104.392 32.5118 101.115 32.5118C73.6549 32.5118 46.1985 32.5118 18.746 32.5118C15.4112 32.5233 14.6523 33.3515 14.4913 36.8255Z" fill="#594857"/>
<path d="M14.4913 36.8255C14.6523 33.3745 15.4112 32.5233 18.7115 32.5233C46.1717 32.5233 73.628 32.5233 101.081 32.5233C104.358 32.5233 105.174 33.455 105.163 36.8715L14.4913 36.8255Z" fill="#FDD78E"/>
<path d="M78.335 76.7646C78.1395 80.2156 78.795 83.54 77.7601 86.9564C74.3103 98.195 63.961 104.211 52.4618 101.473C52.0938 101.393 51.7143 101.37 51.3118 101.324C41.5145 96.9412 36.6733 89.5792 37.4207 79.6404C38.0417 71.7377 42.3079 66.0321 49.4374 62.8228C56.567 59.6134 63.3745 60.4646 69.8141 64.8588C74.2183 67.7921 76.4262 72.1518 78.335 76.7646ZM67.8592 67.0444H67.9282C66.2469 65.7086 64.3115 64.7291 62.2396 64.1655C60.1678 63.6019 58.003 63.466 55.877 63.766C52.7151 64.0437 49.6934 65.1986 47.1519 67.1007C44.6104 69.0029 42.6501 71.5769 41.4915 74.533C39.0536 80.2156 39.2721 85.9671 43.1474 91.1896C43.088 91.4243 43.1189 91.6727 43.2339 91.8857C43.3488 92.0988 43.5396 92.2608 43.7683 92.3399C45.4041 94.4848 47.5043 96.2311 49.9113 97.448C52.3182 98.6649 54.9695 99.3206 57.6659 99.366C60.3624 99.4113 63.0342 98.8452 65.4807 97.71C67.9272 96.5749 70.0849 94.9001 71.792 92.8115C78.174 85.3575 76.5297 72.6465 68.5492 67.7116L67.8592 67.0444Z" fill="#513F52"/>
<path d="M183.887 101.094C189.717 101.094 195.558 101.094 201.388 101.002C205.839 101.002 208.035 98.7011 208.092 94.2954C208.092 90.948 208.092 87.612 208.15 84.2761C212.198 84.8168 213.175 85.9096 213.187 90.0277C213.187 93.2563 213.187 96.4886 213.187 99.7249C213.187 104.039 212.255 104.982 208.046 104.982C201.86 104.982 195.65 104.867 189.464 104.982C186.428 105.108 184.473 104.2 183.887 101.094Z" fill="#422A20" fill-opacity="0.2"/>
<path d="M225.376 115.358C231.01 115.358 236.637 115.327 242.257 115.266C247.362 115.266 249.34 113.23 249.386 108.157L249.49 98.7356C253.48 99.7249 254.089 100.45 254.089 104.338C254.089 107.789 254.089 111.24 254.089 114.691C254.089 117.555 252.606 119.211 249.731 119.292C243.131 119.407 236.53 119.372 229.93 119.292C228.807 119.362 227.702 118.989 226.85 118.254C225.999 117.519 225.47 116.479 225.376 115.358Z" fill="#FDD78E"/>
<path d="M193.81 51.6301C193.603 47.604 193.603 47.604 197.513 47.604C200.089 47.604 202.676 47.604 205.252 47.604C209.185 47.5005 211.45 45.3033 211.6 41.3578C211.726 37.9068 211.703 34.4558 211.749 31.0739C215.521 31.396 216.567 32.5003 216.59 36.2618C216.59 39.7818 216.59 43.3018 216.59 46.8218C216.59 50.3417 215.44 51.6301 211.83 51.6416L193.81 51.6301Z" fill="#FDD78E"/>
<path d="M117.846 117.578C122.872 118.947 127.839 120.477 133.209 120.017C137.864 119.726 142.422 118.555 146.641 116.566C147.491 116.14 148.181 115.565 148.607 117.164C149.09 118.958 150.711 119.752 152.413 120.258C141.27 125.883 130.289 125.458 119.502 119.303C118.812 118.912 117.812 118.694 117.846 117.578Z" fill="#FDD78E"/>
<path d="M25.542 127.77C25.7414 123.203 26.9184 118.733 28.9934 114.661C31.0685 110.588 33.9934 107.009 37.5702 104.165C38.4097 103.463 39.3756 102.302 40.4335 103.682C41.4915 105.062 40.0311 105.545 39.2836 106.178C28.8423 115.461 25.7375 126.711 30.1762 139.975C30.5327 141.021 30.9812 142.183 29.6587 142.655C28.3363 143.126 28.0029 141.723 27.6694 140.803C26.1403 136.633 25.4184 132.21 25.542 127.77Z" fill="#513F52"/>
<path d="M185.105 139.882C189.303 134.833 189.199 133.383 184.427 128.632C178.677 122.881 172.928 117.129 167.259 111.378C168.926 109.18 170.214 109.848 171.858 111.596C177.608 117.543 183.53 123.329 189.395 129.162C190.982 130.737 192.844 132.428 191.695 134.798C190.361 137.409 188.693 140.021 185.105 139.882Z" fill="#FDD78E"/>
<path d="M166.212 106.086C165.292 104.234 164.2 102.635 161.682 102.486C164.183 97.877 165.605 92.76 165.84 87.521C166.075 82.2821 165.117 77.0582 163.038 72.2438C164.809 72.6004 165.338 74.2454 165.913 75.4992C170.881 85.622 171.41 95.8368 166.212 106.086Z" fill="#FDD78E"/>
<path d="M19.252 51.5381C19.252 48.2942 19.3439 45.0503 19.252 41.8179C19.16 39.5172 20.1029 38.4474 22.4142 38.4705C25.473 38.4705 28.5318 38.4705 31.6136 38.4705C32.6716 38.4705 33.9135 38.551 33.9135 39.9659C33.9135 41.3808 32.5451 41.2772 31.4987 41.2887C29.1068 41.2887 26.715 41.4038 24.3346 41.2887C22.5062 41.1737 21.8853 41.6798 21.9313 43.5894C22.0578 49.502 21.9888 55.4146 21.9313 61.3273C21.9313 62.3856 22.3912 63.996 20.7814 64.065C18.8725 64.134 19.3554 62.3856 19.3324 61.2582C19.2175 58.0259 19.252 54.782 19.252 51.5381Z" fill="#594857"/>
<path d="M180.69 47.6844C182.99 47.6844 185.22 47.6154 187.486 47.6039C191.499 47.6039 191.499 47.6039 190.936 51.653C189.119 51.653 187.29 51.538 185.485 51.653C182.633 51.8486 180.897 50.6982 180.69 47.6844Z" fill="#FDD78E"/>
<path d="M220.052 15.7747C217.752 15.6596 217.476 14.6243 218.902 13.0714C221.052 10.7708 223.306 8.56217 225.583 6.37656C227.055 4.96167 228.136 5.09971 228.377 7.36584L220.052 15.7747Z" fill="#594857"/>
<path d="M240.957 148.406C239.991 148.13 238.657 148.153 238.991 146.589C239.221 145.438 240.233 145.611 241.072 145.611H251.928C252.939 145.611 253.859 145.611 254.158 146.865C253.756 148.36 252.537 148.176 251.41 148.199L240.957 148.406Z" fill="#4C3A4E"/>
<path d="M1.77313 148.475C0.623202 148.314 -0.239243 147.946 0.0597376 146.508C0.358718 145.07 1.38215 145.692 2.1066 145.68C5.55638 145.623 8.93715 145.68 12.3524 145.68C13.4334 145.68 14.4683 145.68 14.9398 146.888C14.4223 148.418 13.1344 148.234 11.9155 148.28C8.55768 148.303 5.2229 147.912 1.77313 148.475Z" fill="#4C3A4E"/>
<path d="M220.052 15.7747L228.377 7.36584C230.182 7.63042 230.504 8.6542 229.378 9.88504C227.131 12.3084 224.793 14.6474 222.363 16.902C220.926 18.2363 220.259 17.4196 220.052 15.7747Z" fill="#FDD78E"/>
<path d="M223.168 25.9204C222.259 25.8283 221.409 25.5983 221.42 24.471C221.415 24.2764 221.453 24.0831 221.529 23.9041C221.606 23.7252 221.72 23.5649 221.864 23.4339C222.008 23.303 222.178 23.2046 222.364 23.1453C222.549 23.0861 222.745 23.0674 222.938 23.0906C225.514 23.0906 228.09 23.0906 230.665 23.0906C231.884 23.0906 232.241 23.9648 232.287 25.0231C231.516 25.9549 230.447 25.8283 229.401 25.8283L223.168 25.9204Z" fill="#594857"/>
<path d="M1.77313 148.475C5.14241 147.969 8.53468 148.36 11.9155 148.257C13.1344 148.257 14.4223 148.395 14.9398 146.865C16.0897 146.865 17.2396 147.037 16.9981 148.544C16.8601 149.626 15.8482 149.695 14.9858 149.695H3.81999C2.92305 149.626 2.10661 149.43 1.77313 148.475Z" fill="#FDD78E"/>
<path d="M240.957 148.406L251.41 148.188C252.56 148.188 253.71 148.349 254.158 146.853C255.17 146.853 256.228 146.922 256.24 148.222C256.251 149.522 255.182 149.626 254.181 149.626H242.981C242.554 149.692 242.118 149.607 241.748 149.384C241.378 149.161 241.098 148.815 240.957 148.406Z" fill="#FDD78E"/>
<path d="M211.197 2.25836C211.381 2.25836 211.611 2.25836 211.761 2.25836C213.267 3.15561 213.877 11.5759 212.405 12.5077C210.933 13.4395 210.392 12.4272 210.277 11.0583C211.278 10.4256 211.025 9.40184 211.048 8.48158C211.117 6.43402 211.151 4.34044 211.197 2.25836Z" fill="#FDD78E"/>
<path d="M211.197 2.25842C211.197 4.34049 211.117 6.43407 211.048 8.51615C211.048 9.4364 211.278 10.4602 210.277 11.0929C209.829 10.9663 209.254 10.9548 208.955 10.6672C208.437 10.1726 208.403 1.72927 208.771 1.1081C208.894 0.904562 209.078 0.74436 209.296 0.649584C209.515 0.554809 209.757 0.530131 209.99 0.578953C211.059 0.659475 210.956 1.57973 211.197 2.25842Z" fill="#4C3A4E"/>
<path d="M223.168 25.9204L229.401 25.8284C230.447 25.8284 231.516 25.9549 232.287 25.0232C233 25.2072 233.897 25.2188 233.816 26.3115C233.817 26.6013 233.709 26.8808 233.513 27.0941C233.316 27.3073 233.047 27.4387 232.758 27.4619C229.918 27.4619 227.078 27.4619 224.237 27.4619C223.49 27.3813 223.248 26.6221 223.168 25.9204Z" fill="#FDD78E"/>
<path d="M22.4717 148.475C21.5058 148.119 19.9074 148.383 20.2639 146.623C20.5628 145.139 21.9083 145.703 22.8512 145.657C23.7941 145.611 25.151 145.289 25.5995 146.876C25.2545 148.763 23.4607 147.843 22.4717 148.475Z" fill="#4C3A4E"/>
<path d="M264.703 146.853C265.761 146.853 267.003 146.784 267.003 148.222C267.003 149.66 265.853 149.672 264.703 149.626C263.473 149.557 261.955 150.097 261.483 148.245C262.656 147.969 264.278 148.797 264.703 146.853Z" fill="#FDD78E"/>
<path d="M264.703 146.853C264.278 148.797 262.656 148.004 261.506 148.245C260.437 148.245 259.207 148.245 259.425 146.669C259.598 145.369 260.782 145.519 261.725 145.622C262.806 145.657 264.255 145.105 264.703 146.853Z" fill="#4C3A4E"/>
<path d="M22.4718 148.475C23.4837 147.877 25.2776 148.797 25.5996 146.876C26.7495 146.876 27.7845 146.876 27.658 148.441C27.5315 150.005 26.439 149.718 25.5306 149.591C24.4037 149.511 22.9203 150.247 22.4718 148.475Z" fill="#FDD78E"/>
<path d="M116.443 116.934C116.72 116.87 117.01 116.9 117.268 117.019C117.526 117.138 117.737 117.338 117.869 117.589C117.202 117.796 116.823 117.417 116.443 116.934Z" fill="#FDD78E"/>
<path d="M90.2483 128.517C90.3538 132.551 89.6783 136.566 88.2589 140.343C87.9024 141.32 87.592 142.643 86.1776 142.103C84.7631 141.562 85.3956 140.389 85.7291 139.399C89.3513 128.678 87.431 118.935 80.5314 110.066C79.2195 108.545 77.7596 107.158 76.1732 105.925C75.5178 105.35 74.3563 104.775 75.2993 103.624C76.2422 102.474 77.0127 103.199 77.7831 103.831C83.9467 108.927 88.1899 115.208 89.6503 123.18C90.0981 124.922 90.2993 126.719 90.2483 128.517Z" fill="#513F52"/>
<path d="M208.759 31.143C208.759 34.594 208.874 37.9759 208.863 41.3923C208.918 41.8725 208.864 42.3589 208.705 42.8152C208.546 43.2715 208.286 43.686 207.944 44.0278C207.603 44.3695 207.188 44.6296 206.732 44.7888C206.276 44.9479 205.79 45.0019 205.31 44.9468C197.122 44.9468 188.946 44.8778 180.759 44.8318C180.759 41.887 180.885 38.9422 180.931 35.9974C180.931 32.2013 182.001 31.12 185.887 31.1085C193.511 31.0395 201.135 31.143 208.759 31.143Z" fill="#FDD78E"/>
<path d="M246.5 98.724C246.5 102.175 246.5 105.626 246.603 109.019C246.672 111.447 245.453 112.585 243.154 112.585C237.243 112.585 231.321 112.528 225.399 112.482C225.399 109.913 225.399 107.344 225.399 104.775C225.399 100.242 226.79 98.793 231.355 98.7355C236.358 98.678 241.452 98.724 246.5 98.724Z" fill="#FDD78E"/>
<path d="M205.126 84.8166C205.126 88.2676 205.275 91.7185 205.264 95.1695C205.317 95.5796 205.278 95.9966 205.148 96.3894C205.019 96.7822 204.802 97.1406 204.515 97.4381C204.227 97.7355 203.877 97.9642 203.489 98.1072C203.101 98.2502 202.685 98.3037 202.274 98.2638C196.352 98.2638 190.43 98.1488 184.508 98.0913C184.508 95.0545 184.439 92.0176 184.508 88.9923C184.577 85.9669 185.657 84.8626 188.624 84.8511C194.098 84.7706 199.618 84.8051 205.126 84.8166Z" fill="#422A20" fill-opacity="0.2"/>
<path d="M208.759 31.1429C201.135 31.1429 193.511 31.1429 185.887 31.1429C182.001 31.1429 180.977 32.2932 180.931 36.0317C180.931 38.9765 180.816 41.9214 180.759 44.8662C178.148 45.5679 176.102 44.4175 175.987 41.8638C175.814 38.0563 175.849 34.2257 175.987 30.3607C175.978 29.8979 176.069 29.4387 176.253 29.014C176.437 28.5893 176.71 28.2089 177.053 27.8983C177.396 27.5878 177.802 27.3543 178.243 27.2135C178.684 27.0728 179.149 27.028 179.609 27.0822C188.118 27.0822 196.639 27.0132 205.149 27.0822C207.609 27.1168 209.116 28.3591 208.759 31.1429Z" fill="#FBFAFA"/>
<path d="M205.126 84.8167C199.618 84.8167 194.098 84.8167 188.59 84.8167C185.577 84.8167 184.496 85.9671 184.473 88.9579C184.45 91.9487 184.473 95.0201 184.473 98.0569C181.736 99.1037 179.528 98.0569 179.402 95.2616C179.218 91.4541 179.321 87.635 179.402 83.8275C179.367 83.4151 179.421 83 179.559 82.6101C179.698 82.2202 179.919 81.8645 180.206 81.567C180.494 81.2695 180.842 81.037 181.227 80.8852C181.612 80.7335 182.024 80.6659 182.438 80.6871C189.038 80.5951 195.627 80.5491 202.228 80.6871C204.746 80.7101 205.701 82.3436 205.126 84.8167Z" fill="#FBFAFA"/>
<path d="M246.5 98.724C241.452 98.724 236.392 98.724 231.332 98.724C226.733 98.724 225.387 100.231 225.376 104.763C225.376 107.34 225.376 109.909 225.376 112.47C221.328 112.746 220.638 112.125 220.627 108.226C220.627 104.89 220.73 101.554 220.627 98.2294C220.523 95.8482 221.777 94.7784 223.835 94.7784C230.305 94.671 236.787 94.671 243.28 94.7784C245.672 94.8129 246.937 96.1818 246.5 98.724Z" fill="#FBFAFA"/>
<path d="M148.894 60.1309C160.118 65.7905 166.086 82.125 161.647 95.4342C159.553 102.045 155.339 107.78 149.658 111.754C143.977 115.728 137.145 117.718 130.22 117.417C125.86 117.288 121.577 116.238 117.653 114.335C113.729 112.431 110.252 109.718 107.451 106.374C107.003 105.856 106.198 105.361 106.658 104.43L105.761 103.809C105.974 103.074 105.892 102.285 105.531 101.611C103.679 96.9181 103.714 92.0293 104.139 87.1059C105.025 93.2371 106.761 99.0002 111.039 103.705C118.41 111.757 127.609 114.806 138.062 112.102C148.515 109.399 155.564 102.428 157.933 91.6266C160.302 80.8252 156.783 72.0712 148.676 64.9163C144.076 60.9131 138.557 59.3372 132.68 58.601C134.279 58.601 135.877 58.601 137.464 58.4055C141.466 58.0834 145.065 59.8318 148.894 60.1309Z" fill="#FDD78E"/>
<path d="M148.894 60.1309C145.065 59.8318 141.466 58.0833 137.533 58.4284C135.946 58.5664 134.348 58.5664 132.749 58.6239C117.8 58.3594 104.082 69.3449 104.162 87.1288C103.737 92.0522 103.702 96.941 105.554 101.634C105.915 102.308 105.997 103.097 105.784 103.831C98.8842 94.2838 97.9757 83.9655 102.587 73.3365C104.321 69.2563 106.902 65.5914 110.159 62.585C113.417 59.5785 117.276 57.2992 121.481 55.8981C125.686 54.4971 130.141 54.0064 134.55 54.4584C138.959 54.9105 143.221 56.2951 147.054 58.5204C147.813 58.9115 148.756 59.0611 148.894 60.1309Z" fill="#FBFAFA"/>
<path d="M165.269 113.46C171.502 119.637 177.78 125.779 183.979 132.003C186.198 134.234 185.841 135.454 182.334 138.421C176.692 132.854 171.053 127.279 165.419 121.696C161.371 117.681 161.383 117.67 165.269 113.46Z" fill="#FDD78E"/>
<path d="M165.269 113.46C161.383 117.67 161.371 117.681 165.419 121.696C171.053 127.279 176.684 132.854 182.311 138.421C180.851 140.17 179.321 139.859 177.895 138.421C171.318 131.911 164.798 125.342 158.197 118.866C157.3 117.98 157.3 117.405 158.197 116.565C159.438 115.51 160.592 114.356 161.647 113.114C163.142 111.285 164.223 111.665 165.269 113.46Z" fill="#FBFAFA"/>
<path d="M153.069 117.267C152.736 117.284 152.406 117.205 152.116 117.04C151.827 116.875 151.591 116.63 151.436 116.335C151.222 116.01 151.135 115.618 151.19 115.232C151.245 114.847 151.439 114.495 151.735 114.242C154.564 111.424 157.415 108.594 160.325 105.856C160.592 105.515 160.983 105.292 161.413 105.236C161.844 105.181 162.278 105.296 162.624 105.557C162.815 105.672 162.977 105.829 163.099 106.016C163.221 106.203 163.299 106.414 163.328 106.635C163.356 106.856 163.335 107.081 163.265 107.293C163.195 107.504 163.078 107.697 162.923 107.858C159.957 110.952 156.898 113.966 153.862 116.991C153.701 117.141 153.356 117.164 153.069 117.267Z" fill="#FBFAFA"/>
<path d="M105.761 103.797L106.659 104.419C106.06 104.649 105.853 104.315 105.761 103.797Z" fill="#FBFAFA"/>
<path d="M68.5261 67.6655C76.5066 72.6004 78.151 85.3114 71.7689 92.7654C70.0619 94.854 67.9042 96.5287 65.4577 97.6639C63.0112 98.7991 60.3394 99.3652 57.6429 99.3198C54.9464 99.2745 52.2952 98.6187 49.8883 97.4019C47.4813 96.185 45.3811 94.4387 43.7453 92.2938C43.6073 91.8797 43.6303 91.3851 43.1243 91.1435C43.1573 90.1916 43.1265 89.2385 43.0323 88.2907C41.4455 77.9378 48.92 68.8848 57.9813 66.8833C61.4311 66.1356 64.5934 66.9753 67.8822 66.9983H67.8132L68.5261 67.6655Z" fill="#422A20" fill-opacity="0.2"/>
<path d="M67.9283 67.0789C64.6395 67.0789 61.4312 66.2161 58.0274 66.9638C48.943 68.9654 41.4685 78.0184 43.0784 88.3713C43.1726 89.3191 43.2033 90.2721 43.1704 91.224C39.2952 86.0016 39.0767 80.25 41.5145 74.5674C42.6731 71.6113 44.6335 69.0374 47.1749 67.1352C49.7164 65.233 52.7381 64.0781 55.9001 63.8005C58.0224 63.5036 60.1829 63.6412 62.2505 64.2047C64.3182 64.7683 66.2498 65.7461 67.9283 67.0789Z" fill="#FBFAFA"/>
<path d="M43.1704 91.178C43.6764 91.3851 43.6534 91.8797 43.7913 92.3284C43.5626 92.2493 43.3719 92.0872 43.2569 91.8742C43.1419 91.6612 43.111 91.4127 43.1704 91.178Z" fill="#FBFAFA"/>
<path d="M68.5269 67.6661L67.8593 67.0444L68.5269 67.6661Z" fill="#FBFAFA"/>
<path d="M104.116 87.1289C104.036 69.345 117.812 58.371 132.703 58.624C138.58 59.3602 144.145 60.9247 148.699 64.9393C156.817 72.0828 160.302 80.9632 157.956 91.6497C155.61 102.336 148.584 109.411 138.085 112.125C127.586 114.84 118.433 111.746 111.062 103.728C106.784 99.0117 105.048 93.2601 104.116 87.1289ZM131.312 110.135C144.996 110.078 155.932 99.4258 155.874 86.1857C155.874 72.3013 144.962 61.1202 131.496 61.3963C117.421 61.6839 107.175 72.0137 107.072 85.8521C107.043 89.0511 107.651 92.224 108.861 95.1854C110.071 98.1467 111.858 100.837 114.119 103.1C116.38 105.363 119.069 107.152 122.029 108.364C124.989 109.576 128.16 110.186 131.358 110.158L131.312 110.135Z" fill="#513F52"/>
<path d="M131.358 110.158C128.166 110.18 125.001 109.566 122.048 108.353C119.095 107.14 116.413 105.351 114.157 103.092C111.902 100.832 110.118 98.1462 108.909 95.1906C107.701 92.2349 107.092 89.0684 107.118 85.8751C107.221 72.0713 117.467 61.7185 131.542 61.4194C145.008 61.1433 155.874 72.3244 155.92 86.2087C155.978 99.4489 145.042 110.101 131.358 110.158ZM112.281 86.4848C112.373 87.221 112.488 87.9687 112.534 88.7854C112.603 89.9357 112.764 91.0861 114.121 90.994C115.478 90.902 115.34 89.6137 115.271 88.4978C114.921 85.6556 115.336 82.7716 116.472 80.143C117.608 77.5145 119.424 75.2364 121.733 73.5437C122.538 72.911 123.723 72.2899 122.803 71.059C121.883 69.8282 120.94 70.76 120.112 71.3696C114.949 75.0621 112.614 80.2386 112.281 86.4848Z" fill="#FBFAFA"/>
<path d="M112.281 86.4847C112.614 80.2385 114.949 75.062 120.066 71.3005C120.894 70.6908 121.837 69.7706 122.757 70.9899C123.677 72.2092 122.492 72.8419 121.687 73.4746C119.378 75.1673 117.562 77.4453 116.426 80.0739C115.29 82.7024 114.875 85.5864 115.225 88.4287C115.34 89.579 115.501 90.7294 114.075 90.9249C112.649 91.1205 112.557 89.7746 112.488 88.7163C112.488 87.9686 112.373 87.2209 112.281 86.4847Z" fill="#594857"/>
</svg>
