<svg width="267" height="138" viewBox="0 0 267 138" fill="none" xmlns="http://www.w3.org/2000/svg">
<path d="M148.243 117.617C148.243 106.539 148.312 95.4615 148.243 84.384C148.243 82.2444 148.807 81.6232 150.957 81.6577C158.616 81.7958 166.274 81.7728 173.956 81.6577C175.911 81.6577 176.808 82.1178 176.566 84.1999C176.444 85.347 176.444 86.5038 176.566 87.6509C176.865 90.9638 178.647 92.5972 181.982 92.6087C191.262 92.6087 200.542 92.6778 209.822 92.6087C211.995 92.6087 212.789 93.0459 212.743 95.427C212.57 104.687 212.57 113.947 212.674 123.207C212.674 125.404 212.018 125.91 209.914 125.899C190.676 125.818 171.449 125.899 152.211 125.899C147.818 125.899 148.347 126.44 148.301 121.873C148.301 121.482 148.301 121.102 148.301 120.723C149.347 120.723 150.394 120.607 151.452 120.607C168.977 120.607 186.501 120.607 204.026 120.607C206.211 120.607 206.982 120.124 206.936 117.789C206.763 110.623 206.936 103.456 206.855 96.2783C206.855 95.1279 207.258 93.368 205.521 93.3219C203.785 93.2759 204.072 94.9899 204.061 96.1747C204.061 102.67 204.061 109.169 204.061 115.673C204.061 116.972 203.957 117.824 202.255 117.812C184.255 117.697 166.251 117.632 148.243 117.617Z" fill="#FDD78E"/>
<path d="M106.248 104.756C107.904 111.025 109.572 117.283 111.204 123.552C111.549 124.91 112.354 126.405 111.204 127.636C110.054 128.867 108.353 128.119 106.904 127.728C102.741 126.578 98.6472 125.197 94.427 124.415C89.3904 123.472 85.6761 120.883 82.1228 117.283C66.0814 100.995 49.8215 84.9246 33.6306 68.7626C29.0999 64.2418 29.1229 61.8607 33.6306 57.2594C35.9304 54.9588 38.2303 52.6581 40.5301 50.3575C44.4974 46.3659 46.2797 46.1818 50.9714 49.2072L58.4114 56.6842C59.1129 57.455 59.7798 58.2602 60.5273 58.9849L103.741 102.053C104.627 102.881 105.386 103.836 106.248 104.756ZM48.1656 50.8291C46.4637 48.9541 44.9228 49.8514 43.5659 51.1972C41.0361 53.6359 38.5638 56.1551 36.0799 58.6513C31.9172 62.8039 32.0092 63.1835 36.0799 67.3362C37.9543 69.2572 39.0812 69.0617 40.1737 66.7955C43.3934 64.4029 45.9233 61.3085 48.7751 58.5363C52.8343 54.5217 52.7883 54.4756 48.1656 50.8291ZM45.2333 69.8094C43.6924 67.2557 42.646 69.4298 41.4731 70.212C39.8632 71.3623 40.8061 72.1215 41.7491 73.0648C56.3761 87.5895 70.9839 102.126 85.5726 116.673C87.9874 119.077 87.9874 119.077 90.3563 116.282C92.0927 114.706 90.0918 114.12 89.4364 113.464C75.4073 99.3764 61.3361 85.3195 47.2227 71.2933C46.6477 70.7181 46.2453 69.8439 45.2333 69.8094ZM47.5332 67.5087C47.9701 68.0149 48.3726 68.5555 48.8441 69.0157C63.1031 83.2566 77.3545 97.509 91.5982 111.773C92.9781 113.153 93.6796 113.303 95.14 111.842C96.6004 110.381 96.4509 109.679 95.0595 108.322C85.5956 99.0044 76.2352 89.5833 66.8289 80.2198C61.4817 74.9053 56.0886 69.6368 50.7299 64.3454C49.7065 62.2288 48.6946 62.8385 47.3607 64.1613C46.0268 65.4842 45.3828 66.554 47.4987 67.5202L47.5332 67.5087ZM52.8573 62.2288C53.2253 62.6659 53.5472 63.1375 53.9497 63.5401C68.2164 77.7887 82.4793 92.045 96.7384 106.309C98.1988 107.781 99.0382 107.977 100.579 106.401C102.12 104.825 102.051 104.1 100.579 102.57C90.6208 92.7927 80.7659 82.9115 70.8536 73.0878C66.0469 68.314 61.1828 63.5977 56.3416 58.8583C55.1917 56.7418 54.1452 57.708 52.8918 58.8583C51.6384 60.0087 50.73 61.09 52.8228 62.2403L52.8573 62.2288ZM90.3793 120.4C94.2546 121.551 97.8193 122.54 101.396 123.518C103.5 124.093 107.41 120.768 106.938 118.698C106.076 114.948 104.972 111.232 103.868 107.114L91.7477 118.939C91.3108 119.342 90.9543 119.768 90.3448 120.412L90.3793 120.4Z" fill="#513F52"/>
<path d="M96.3589 57.1329H169.31C170.081 57.1329 170.84 57.1329 171.61 57.1329C172.38 57.1329 173.231 57.6045 173.266 58.4097C173.3 59.2149 172.587 59.7211 171.725 59.7786C171.058 59.7786 170.38 59.7786 169.713 59.7786C143.379 59.7786 117.058 59.7786 90.7242 59.7786C88.4244 59.7786 87.8724 59.2149 87.9069 56.9718C88.0334 47.1251 88.0104 37.2784 87.9069 27.4432C87.9069 25.5336 88.2519 24.8434 90.3563 24.8549C116.981 24.924 143.602 24.9431 170.219 24.9125C170.885 24.8969 171.552 24.9509 172.208 25.0735C172.492 25.1143 172.753 25.2503 172.95 25.4593C173.146 25.6683 173.266 25.9379 173.289 26.2238C173.284 26.5157 173.181 26.7975 172.998 27.0246C172.815 27.2517 172.561 27.4111 172.277 27.4777C171.333 27.6198 170.379 27.6814 169.425 27.6617H99.7741L99.6707 28.1218C102.614 29.0881 105.558 30.0659 108.502 31.0206C117.874 34.023 127.257 36.9793 136.606 40.0276C138.207 40.6129 139.955 40.6613 141.585 40.1657C150.785 37.3359 160.065 34.6326 169.31 31.8834C170.031 31.6271 170.769 31.4196 171.518 31.2622C171.704 31.2072 171.899 31.1914 172.091 31.2157C172.284 31.2399 172.469 31.3038 172.635 31.4032C172.802 31.5027 172.946 31.6355 173.058 31.7934C173.171 31.9513 173.249 32.1307 173.289 32.3205C173.35 32.6571 173.277 33.0043 173.086 33.288C172.895 33.5717 172.6 33.7694 172.265 33.8389C170.92 34.3221 169.54 34.7132 168.16 35.1158L143.897 42.3973L156.672 46.6075C160.95 47.9993 165.262 49.2877 169.494 50.7831C170.92 51.3007 173.829 51.1972 173.059 53.3943C172.288 55.5914 170 53.7509 168.459 53.2908C159.432 50.461 150.463 47.5392 141.459 44.6174C140.241 44.088 138.883 43.9748 137.595 44.2953C124.245 48.3214 110.848 52.2325 97.4743 56.1896C97.0437 56.3305 96.6214 56.4956 96.2094 56.6842L96.3589 57.1329ZM134.479 42.3973L125.739 39.5675C114.827 36.0245 103.891 32.47 93.0011 28.9846C92.2652 28.743 90.7013 27.2821 90.7013 29.7898C90.7013 38.1756 90.7013 46.5729 90.7013 55.2578L134.479 42.3973Z" fill="#513F52"/>
<path d="M145.07 13.5704C121.427 13.5704 97.7848 13.5704 74.1539 13.5014C71.44 13.5014 70.8766 14.3066 70.8996 16.8373C71.0261 29.4908 70.9801 42.0523 70.8996 54.6598C70.8996 55.9481 71.555 58.1107 69.5657 58.1107C67.3578 58.1107 68.2547 55.9366 68.2547 54.6598C68.1857 39.0845 68.2547 23.5207 68.2547 7.95686C68.2547 1.83717 70.0026 0.0886841 76.0972 0.0886841H213.904C220.068 0.0886841 221.77 1.77965 221.781 7.88784C221.781 12.4891 221.781 17.0904 221.781 21.6917C221.781 22.934 222.276 24.8895 220.344 24.809C218.412 24.7285 219.056 22.796 219.021 21.5421C218.882 19.6275 218.882 17.7052 219.021 15.7905C219.274 13.4899 217.975 13.4899 216.273 13.4899C199.806 13.4899 183.351 13.4899 166.826 13.4899L145.07 13.5704ZM71.1756 7.17464C70.7156 10.9017 70.7156 10.9017 74.3723 10.9017H215.388C219.136 10.9017 219.136 10.9017 218.837 7.19765C218.837 3.53964 217.998 2.78043 213.617 2.78043C167.896 2.78043 122.175 2.78043 76.4537 2.78043C75.5965 2.7393 74.7372 2.78555 73.8894 2.91847C71.5665 3.3901 70.3131 4.62094 71.1756 7.17464Z" fill="#4C3A4E"/>
<path d="M33.7801 134.664C32.9291 134.457 31.9632 134.308 32.1587 133.1C32.3541 131.892 33.3086 131.95 34.1365 131.846C34.9645 131.743 35.8614 131.846 36.7239 131.846H213.341C218.688 131.846 218.964 131.57 218.964 126.095V109.185C218.964 108.713 218.964 108.23 218.964 107.759C218.964 106.608 219.148 105.366 220.39 105.354C221.632 105.343 221.816 106.597 221.816 107.724C221.816 112.509 221.816 117.283 221.816 122.057C221.816 125.197 222.218 128.361 221.206 131.823H229.255C230.681 131.823 232.05 131.904 231.866 133.917C230.716 134.964 229.325 134.572 228.025 134.572H36.9308C35.8729 134.584 34.8265 134.641 33.7801 134.664Z" fill="#594857"/>
<path d="M117.092 119.63C115.114 115.765 114.562 111.497 113.826 107.333C112.951 102.848 110.672 98.7587 107.318 95.657C103.868 92.2061 100.614 88.6171 97.2789 85.0856C96.5429 84.3264 95.623 83.5672 96.129 82.3939C96.6349 81.2205 97.8078 81.7382 98.6703 81.7382C107.548 81.7382 116.437 81.7382 125.314 81.7382C125.314 91.8533 125.348 101.957 125.417 112.049C125.417 117.594 125.417 117.617 119.955 117.697C118.541 117.755 117.23 117.755 117.092 119.63Z" fill="#422A20" fill-opacity="0.2"/>
<path d="M148.243 117.617C166.251 117.663 184.267 117.712 202.29 117.766C203.992 117.766 204.095 116.926 204.095 115.626C204.095 109.131 204.095 102.632 204.095 96.1286C204.095 94.9783 203.785 93.2183 205.556 93.2758C207.327 93.3333 206.89 95.0588 206.89 96.2321C206.89 103.41 206.798 110.577 206.97 117.743C206.97 120.044 206.246 120.561 204.061 120.561C186.536 120.469 169.011 120.561 151.486 120.561C150.428 120.561 149.382 120.63 148.335 120.676C146.422 120.536 144.503 120.494 142.586 120.55C140.573 120.699 139.803 120.274 139.815 117.973C139.941 104.169 139.918 90.262 139.815 76.4122C139.815 74.3761 140.182 73.6284 142.448 73.6629C151.728 73.8009 161.019 73.6629 170.311 73.6629C170.881 73.634 171.453 73.634 172.024 73.6629C172.355 73.6893 172.661 73.8458 172.877 74.0981C173.092 74.3504 173.199 74.6779 173.174 75.0088C173.174 75.3139 173.053 75.6064 172.837 75.8222C172.621 76.0379 172.329 76.1591 172.024 76.1591C171.168 76.2474 170.308 76.2897 169.448 76.2856C161.215 76.2856 152.981 76.3546 144.748 76.2856C142.827 76.2856 142.379 76.8723 142.448 78.7013C142.528 90.5496 142.586 102.398 142.448 114.246C142.448 117.087 143.046 118.33 146.001 117.766C146.744 117.666 147.494 117.616 148.243 117.617Z" fill="#513F52"/>
<path d="M33.7801 134.664C34.8265 134.664 35.8729 134.584 36.9309 134.584H228.048C229.348 134.584 230.751 134.975 231.889 133.928C232.901 133.848 233.97 133.848 233.809 135.274C233.648 136.7 232.441 136.654 231.383 136.654C223.632 136.654 215.882 136.654 208.131 136.654H136.963H37.6783C36.0109 136.654 34.3321 136.723 33.7801 134.664Z" fill="#422A20" fill-opacity="0.2"/>
<path d="M128.304 81.6462C133.777 81.8648 133.777 81.8648 133.777 87.3403C133.777 99.0506 133.72 110.761 133.777 122.46C133.777 124.76 133.156 125.485 130.88 125.347C127.936 125.163 124.969 125.347 122.014 125.347C117.414 125.347 117.046 125.002 117.242 120.055C119.737 120.999 122.347 120.343 124.877 120.631C127.407 120.918 128.235 119.998 128.212 117.352C128.154 105.423 128.269 93.529 128.304 81.6462Z" fill="#422A20" fill-opacity="0.2"/>
<path d="M243.595 85.9599C244.159 86.581 244.745 87.2252 245.274 87.8464C245.803 88.4675 246.527 89.3648 245.688 90.2851C244.849 91.2053 244.032 90.4346 243.388 89.8249C243.112 89.5834 242.802 89.3763 242.503 89.1577L237.466 83.8663L234.453 90.6071C233.786 91.861 233.165 93.1378 232.441 94.3687C231.912 95.2889 231.808 96.8188 230.267 96.6693C228.98 96.5198 228.922 95.2314 228.589 94.2651C225.587 85.5227 222.551 76.8033 219.642 68.0379C219.194 66.7035 217.687 65.1506 219.021 63.8163C220.355 62.4819 221.896 63.9543 223.241 64.4029C232.027 67.317 240.789 70.2925 249.529 73.3294C250.874 73.801 253.163 73.9966 251.53 76.4927C249.115 77.6431 246.688 78.7014 244.285 79.8287C239.041 82.2098 239.053 82.2098 243.595 85.9599ZM233.246 85.9599C235.063 79.357 241.721 78.6093 246.918 75.2849L227.37 68.7511C225.748 68.1645 224.207 67.2557 222.126 67.2557L230.727 91.976C231.728 89.5604 232.51 87.7428 233.28 85.9253L233.246 85.9599Z" fill="#513F52"/>
<path d="M128.304 81.6462C128.304 93.529 128.154 105.423 128.304 117.306C128.304 119.952 127.602 120.884 124.969 120.584C122.336 120.285 119.829 120.953 117.334 120.009C117.296 119.87 117.23 119.741 117.138 119.63C117.276 117.755 118.587 117.755 120.013 117.732C125.475 117.651 125.486 117.628 125.475 112.084C125.475 101.984 125.44 91.8802 125.371 81.7727C126.142 76.3087 126.142 76.3087 120.875 76.3087H91.8972C91.0462 76.3087 90.1838 76.3087 89.3329 76.1822C89.0279 76.1822 88.7354 76.061 88.5197 75.8453C88.3041 75.6295 88.1829 75.3369 88.1829 75.0319C88.1542 74.8653 88.1625 74.6944 88.2073 74.5314C88.252 74.3684 88.3322 74.2173 88.442 74.0888C88.5518 73.9603 88.6885 73.8576 88.8425 73.788C88.9965 73.7183 89.1639 73.6835 89.3329 73.686C89.8963 73.686 90.4828 73.686 91.0462 73.686C102.614 73.686 114.194 73.686 125.762 73.686C127.867 73.686 128.361 74.3647 128.212 76.2857C128.062 78.2067 128.269 79.8287 128.304 81.6462Z" fill="#513F52"/>
<path d="M106.248 104.756C105.42 103.836 104.627 102.881 103.753 102.007L60.5388 58.9388C59.7914 58.2026 59.1244 57.3974 58.423 56.6382C59.0819 56.2669 59.5903 55.6769 59.8604 54.9703C61.1138 54.5676 61.5392 55.6835 62.1602 56.2931C76.9367 70.9942 91.6557 85.7528 106.49 100.408C108.33 102.214 108.502 103.422 106.248 104.756Z" fill="#FDD78E"/>
<path d="M243.595 85.9598C238.995 82.2098 238.995 82.2098 244.228 79.7941C246.631 78.6438 249.057 77.574 251.472 76.4582L257.417 78.5748C252.91 81.6346 247.804 82.992 243.595 85.9598Z" fill="#FDD78E"/>
<path d="M234.396 90.6072L237.409 83.8663L242.445 89.1578L237.627 98.7629L234.396 90.6072Z" fill="#FDD78E"/>
<path d="M28.7663 42.9609C28.6398 43.6857 28.4098 43.9042 27.6164 43.6972C22.5797 42.4088 19.5669 38.4517 16.2207 35.0353C15.6802 34.4831 15.3122 33.8044 16.0022 33.0222C16.0924 32.8803 16.2126 32.76 16.3543 32.6696C16.496 32.5792 16.6558 32.521 16.8224 32.4991C16.9891 32.4772 17.1585 32.492 17.3188 32.5427C17.479 32.5933 17.6263 32.6785 17.7501 32.7921C21.7633 35.4149 25.0176 38.8658 28.3293 42.2708C28.4943 42.488 28.6405 42.7189 28.7663 42.9609Z" fill="#513F52"/>
<path d="M68.2663 121.183C68.2663 118.882 68.2663 116.581 68.2663 114.281C68.2663 113.475 68.3813 112.705 69.4162 112.624C70.5661 112.532 70.8536 113.349 70.8536 114.281C70.8536 119.043 70.8536 123.805 70.8536 128.579C70.8536 129.43 70.5316 130.086 69.5427 130.075C68.5537 130.063 68.2548 129.442 68.2548 128.568C68.2701 126.114 68.2739 123.652 68.2663 121.183Z" fill="#4C3A4E"/>
<path d="M240.651 41.6611V37.9571C240.651 37.1058 240.881 36.4387 241.893 36.3926C242.089 36.3567 242.29 36.3674 242.481 36.4239C242.672 36.4804 242.846 36.5811 242.991 36.7178C243.135 36.8546 243.246 37.0235 243.313 37.2108C243.38 37.3981 243.402 37.5986 243.377 37.796C243.423 40.5568 243.423 43.3176 243.377 46.0783C243.386 46.2719 243.35 46.4649 243.271 46.6421C243.193 46.8192 243.074 46.9755 242.924 47.0985C242.774 47.2214 242.598 47.3076 242.409 47.3502C242.22 47.3928 242.024 47.3905 241.836 47.3437C240.996 47.2516 240.686 46.688 240.686 45.9518C240.651 44.5254 240.651 43.0875 240.651 41.6611Z" fill="#594857"/>
<path d="M15.1168 133.836C16.0712 133.836 17.1981 133.756 17.0946 135.205C17.0141 136.298 16.0482 136.574 15.2087 136.585C11.4025 136.654 7.59626 136.654 3.79001 136.585C3.26099 136.56 2.75701 136.353 2.36313 135.998C1.96925 135.644 1.70962 135.165 1.62814 134.641C4.57195 134.641 7.53877 134.641 10.4826 134.515C12.035 134.423 13.7484 135.159 15.1168 133.836Z" fill="#422A20" fill-opacity="0.2"/>
<path d="M254.462 133.894C255.37 133.894 256.244 133.894 256.21 135.136C256.175 136.378 255.439 136.62 254.508 136.62C250.725 136.62 246.941 136.62 243.158 136.62C241.928 136.62 241.203 136.022 241.249 134.71C243.618 134.653 245.999 134.71 248.367 134.526C250.403 134.423 252.576 135.205 254.462 133.894Z" fill="#422A20" fill-opacity="0.2"/>
<path d="M15.1168 133.836C13.7484 135.159 12.035 134.469 10.5171 134.538C7.57328 134.676 4.60646 134.63 1.66265 134.664C0.777211 134.538 -0.0852357 134.4 0.00675826 133.192C0.0987522 131.984 1.06472 132.042 1.90416 132.042C5.68741 132.042 9.48217 132.042 13.2654 132.042C14.5418 131.973 15.1283 132.571 15.1168 133.836Z" fill="#4C3A4E"/>
<path d="M254.462 133.894C252.553 135.205 250.403 134.4 248.367 134.549C245.999 134.71 243.618 134.676 241.249 134.733C240.283 134.503 238.949 134.641 239.202 133.065C239.421 131.765 240.594 132.019 241.502 132.007C244.952 132.007 248.505 132.007 252.001 132.007C253.404 131.961 254.427 132.226 254.462 133.894Z" fill="#4C3A4E"/>
<path d="M195.804 85.2121H191.791C190.894 85.2121 190.273 84.8325 190.273 83.8893C190.267 83.6953 190.302 83.5021 190.378 83.3232C190.453 83.1443 190.566 82.9837 190.709 82.8526C190.852 82.7215 191.022 82.6228 191.207 82.5635C191.392 82.5042 191.587 82.4856 191.78 82.5089C194.447 82.5089 197.131 82.5089 199.829 82.5089C200.703 82.5089 201.312 82.923 201.301 83.8778C201.289 84.8325 200.772 85.2351 199.841 85.2236L195.804 85.2121Z" fill="#594857"/>
<path d="M221.781 96.8074C221.781 98.0498 221.781 99.2921 221.781 100.534C221.781 101.524 221.459 102.294 220.355 102.26C220.161 102.26 219.97 102.219 219.793 102.139C219.617 102.058 219.46 101.941 219.332 101.795C219.205 101.649 219.11 101.478 219.054 101.292C218.999 101.106 218.984 100.911 219.01 100.718C219.01 98.0382 219.01 95.3695 219.01 92.6663C219.01 91.7805 219.435 91.1248 220.332 91.0903C221.229 91.0558 221.816 91.7575 221.793 92.7698C221.77 94.1617 221.781 95.473 221.781 96.8074Z" fill="#594857"/>
<path d="M184.972 62.7809V66.7955C184.976 66.9783 184.944 67.16 184.877 67.3303C184.811 67.5007 184.711 67.6562 184.585 67.7881C184.458 67.9201 184.307 68.0258 184.14 68.0992C183.972 68.1726 183.792 68.2124 183.609 68.2161C183.427 68.2199 183.245 68.1877 183.075 68.1212C182.904 68.0547 182.749 67.9554 182.617 67.8288C182.485 67.7022 182.38 67.5509 182.306 67.3835C182.233 67.2161 182.193 67.0358 182.189 66.853C182.189 64.1843 182.189 61.504 182.189 58.8008C182.171 58.6108 182.193 58.419 182.256 58.2386C182.318 58.0582 182.419 57.8935 182.552 57.7558C182.684 57.6181 182.844 57.5107 183.022 57.4409C183.199 57.371 183.39 57.3405 183.581 57.3514C184.627 57.3514 185.041 58.0531 185.007 59.0769C184.961 60.3077 184.984 61.55 184.972 62.7809Z" fill="#594857"/>
<path d="M202.382 30.6871C203.716 30.6871 205.061 30.6871 206.395 30.6871C206.588 30.6682 206.783 30.693 206.965 30.7599C207.147 30.8267 207.311 30.9338 207.446 31.0731C207.581 31.2125 207.683 31.3805 207.744 31.5646C207.805 31.7487 207.823 31.9442 207.798 32.1365C207.8 32.3066 207.767 32.4753 207.702 32.6324C207.637 32.7896 207.541 32.932 207.42 33.0512C207.298 33.1704 207.154 33.2639 206.996 33.3261C206.838 33.3884 206.669 33.418 206.499 33.4134C203.727 33.4134 200.944 33.4134 198.173 33.4134C197.979 33.4297 197.783 33.4016 197.601 33.3312C197.419 33.2608 197.255 33.15 197.123 33.007C196.99 32.8641 196.891 32.6928 196.834 32.5062C196.777 32.3195 196.763 32.1223 196.793 31.9295C196.793 31.0322 197.449 30.6296 198.357 30.6411H202.382V30.6871Z" fill="#594857"/>
<path d="M233.947 33.4479C232.625 33.4479 231.291 33.4479 229.969 33.4479C229.773 33.4673 229.576 33.4453 229.389 33.3835C229.203 33.3217 229.031 33.2214 228.886 33.0891C228.741 32.9568 228.625 32.7954 228.546 32.6155C228.467 32.4356 228.427 32.241 228.428 32.0445C228.416 31.8522 228.447 31.6596 228.518 31.4806C228.589 31.3016 228.699 31.1404 228.84 31.0086C228.98 30.8768 229.148 30.7776 229.331 30.7181C229.514 30.6586 229.708 30.6401 229.9 30.6642C232.556 30.6642 235.212 30.6642 237.869 30.6642C238.061 30.6525 238.253 30.6834 238.432 30.7546C238.611 30.8258 238.772 30.9356 238.904 31.0762C239.036 31.2168 239.135 31.3847 239.195 31.568C239.254 31.7512 239.272 31.9454 239.248 32.1366C239.244 32.3048 239.206 32.4704 239.137 32.6237C239.068 32.7771 238.969 32.9151 238.846 33.0298C238.723 33.1444 238.578 33.2333 238.42 33.2912C238.262 33.3492 238.094 33.3751 237.926 33.3674C236.592 33.4364 235.27 33.3674 233.936 33.3674L233.947 33.4479Z" fill="#594857"/>
<path d="M182.201 77.0679C182.649 75.9176 181.212 73.3179 183.489 73.2949C186.053 73.2949 184.639 75.9636 184.892 77.436C185.133 78.7244 184.892 80.0817 185.547 81.3241C186.064 82.2788 186.087 83.2566 184.892 83.6247C183.696 83.9928 183.454 82.992 183.04 82.2788C182.275 80.6557 181.984 78.8493 182.201 77.0679Z" fill="#594857"/>
<path d="M184.983 47.1596C184.983 48.402 184.983 49.6443 184.983 50.8867C184.983 51.8759 184.662 52.5891 183.523 52.5431C182.385 52.4971 182.201 51.8874 182.201 51.0247C182.201 48.4365 182.201 45.8598 182.201 43.2831C182.201 42.3168 182.569 41.5461 183.684 41.6036C184.8 41.6611 185.007 42.5009 185.007 43.4326C184.972 44.698 184.983 45.9173 184.983 47.1596Z" fill="#594857"/>
<path d="M218.469 30.6986C219.711 30.6986 220.953 30.6986 222.207 30.6986C222.371 30.6735 222.54 30.6847 222.7 30.7312C222.86 30.7777 223.008 30.8584 223.134 30.9678C223.259 31.0772 223.36 31.2127 223.428 31.3649C223.497 31.517 223.531 31.6821 223.529 31.8489C223.529 32.7807 223.138 33.3673 222.23 33.3788C219.462 33.4248 216.687 33.4248 213.904 33.3788C213.71 33.3951 213.516 33.3661 213.335 33.2941C213.155 33.2222 212.993 33.1092 212.864 32.9642C212.735 32.8191 212.641 32.646 212.59 32.4584C212.539 32.2709 212.532 32.074 212.57 31.8834C212.639 30.8826 213.318 30.6411 214.169 30.6411H218.469V30.6986Z" fill="#594857"/>
<path d="M32.7221 32.4126C32.7221 31.1702 32.7221 29.9279 32.7221 28.697C32.7064 28.532 32.7238 28.3654 32.7734 28.2072C32.823 28.049 32.9038 27.9023 33.011 27.7758C33.1181 27.6493 33.2495 27.5455 33.3974 27.4706C33.5453 27.3957 33.7067 27.3512 33.872 27.3397C34.063 27.3069 34.2588 27.3173 34.4452 27.37C34.6316 27.4228 34.8039 27.5165 34.9494 27.6444C35.0949 27.7723 35.21 27.9312 35.2862 28.1093C35.3624 28.2875 35.3979 28.4804 35.3899 28.674C35.4436 31.3428 35.4436 34.0268 35.3899 36.7263C35.4033 36.9212 35.3722 37.1166 35.2989 37.2977C35.2256 37.4789 35.1121 37.641 34.967 37.7717C34.8219 37.9025 34.6489 37.9986 34.4612 38.0526C34.2735 38.1066 34.076 38.1172 33.8835 38.0836C32.9406 38.0031 32.6646 37.3129 32.6646 36.4617C32.6646 35.1273 32.6646 33.793 32.6646 32.4586L32.7221 32.4126Z" fill="#594857"/>
<path d="M189.261 30.6642C190.147 30.8367 191.768 30.181 191.86 31.8145C191.975 33.678 190.285 33.4479 189.135 33.3674C187.18 33.2524 186.179 34.3452 185.271 35.7946C184.88 36.4273 184.363 37.1289 183.431 36.6458C182.5 36.1627 182.557 35.2769 182.994 34.4487C184.305 32.0445 186.133 30.4456 189.261 30.6642Z" fill="#513F52"/>
<path d="M38.9892 34.6673C38.9892 35.8981 38.9892 37.1175 38.9892 38.3483C39.0065 38.5363 38.9845 38.7258 38.9245 38.9048C38.8645 39.0838 38.7678 39.2483 38.6406 39.3877C38.5135 39.5272 38.3587 39.6387 38.186 39.7149C38.0134 39.7911 37.8267 39.8305 37.638 39.8305C37.4493 39.8305 37.2627 39.7911 37.09 39.7149C36.9174 39.6387 36.7626 39.5272 36.6354 39.3877C36.5083 39.2483 36.4116 39.0838 36.3516 38.9048C36.2915 38.7258 36.2695 38.5363 36.2869 38.3483C36.2869 35.8981 36.2869 33.4364 36.2869 30.9748C36.2754 30.7834 36.3043 30.5918 36.3716 30.4123C36.4389 30.2328 36.5431 30.0694 36.6775 29.9328C36.8119 29.7961 36.9735 29.6893 37.1519 29.6191C37.3302 29.5489 37.5213 29.517 37.7128 29.5254C38.8627 29.5254 39.0582 30.3421 39.0582 31.2739C39.0582 32.4242 39.0582 33.5745 39.0582 34.7248L38.9892 34.6673Z" fill="#422A20" fill-opacity="0.2"/>
<path d="M22.5108 51.8414C23.7297 52.2095 25.9606 51.0592 25.9606 53.1413C25.9606 55.2234 23.6607 54.5907 22.2578 54.6597C20.8549 54.7287 19.3945 54.6597 17.9686 54.6597C17.3033 54.769 16.6209 54.6318 16.0494 54.2739C15.4779 53.9161 15.0563 53.3621 14.8638 52.7157C17.3706 52.083 20.1305 53.5669 22.5108 51.8414Z" fill="#422A20" fill-opacity="0.2"/>
<path d="M262.776 131.892C264.972 131.144 265.076 133.687 266.111 134.837C266.387 135.124 266.111 135.7 265.49 135.815C263.27 136.252 261.557 135.124 259.878 133.986C259.66 133.836 259.637 133.019 259.878 132.674C260.396 131.651 261.476 132.042 262.776 131.892Z" fill="#594857"/>
<path d="M22.5108 51.8414C20.1305 53.5669 17.3707 52.083 14.8639 52.7502C14.2084 52.7502 13.5414 52.7502 12.886 52.6352C12.7212 52.6241 12.5606 52.5775 12.4154 52.4988C12.2701 52.4201 12.1436 52.3109 12.0443 52.1788C11.945 52.0468 11.8753 51.8948 11.8399 51.7334C11.8046 51.5719 11.8045 51.4048 11.8396 51.2433C11.8971 50.6221 12.1845 50.093 12.886 50.093C15.7263 50.093 18.5551 50.093 21.3954 50.093C22.4648 50.1735 22.3729 51.1167 22.5108 51.8414Z" fill="#4C3A4E"/>
<path d="M59.8603 54.9588C59.5903 55.6654 59.0818 56.2555 58.4229 56.6268L50.9829 49.1497C53.4552 48.494 55.0996 49.8054 56.606 51.4503C57.6754 52.6467 58.7794 53.797 59.8603 54.9588Z" fill="#422A20" fill-opacity="0.2"/>
<path d="M209.396 82.486H211.11C212.099 82.486 212.777 82.8772 212.708 84.0045C212.639 85.1318 211.984 85.2353 211.133 85.1548C210.282 85.0743 209.224 85.1548 208.281 85.1548C207.338 85.1548 206.223 85.3963 206.131 84.0045C206.039 82.6126 207.177 82.463 208.258 82.4515H209.408L209.396 82.486Z" fill="#594857"/>
<path d="M240.674 55.6489V53.7279C240.674 52.8767 240.939 52.2095 241.882 52.1635C242.825 52.1175 243.319 52.8537 243.342 53.8199C243.388 54.3827 243.388 54.9482 243.342 55.5109C243.158 56.6612 244.021 58.6398 242.066 58.6858C239.708 58.7548 241.077 56.5462 240.674 55.6489Z" fill="#513F52"/>
<path d="M22.2808 134.676C21.2574 134.584 20.3374 134.377 20.5559 133.019C20.7744 131.662 21.7058 131.961 22.5798 132.007C23.9597 132.076 25.8686 131.34 25.9031 133.859C24.8912 135.009 23.4768 134.342 22.2808 134.676Z" fill="#4C3A4E"/>
<path d="M22.2808 134.676C23.4308 134.342 24.8912 135.009 25.9031 133.859C26.892 133.859 28.0765 133.928 27.789 135.297C27.6393 135.864 27.2785 136.353 26.7804 136.663C26.2824 136.973 25.6847 137.081 25.1096 136.965C23.9137 136.781 22.3613 136.482 22.2808 134.676Z" fill="#422A20" fill-opacity="0.2"/>
<path d="M56.2611 58.8699C61.1022 63.6092 65.9664 68.3255 70.7731 73.0993C80.6854 82.923 90.5403 92.8043 100.499 102.582C102.017 104.066 102.063 104.883 100.499 106.413C98.9348 107.942 98.1183 107.793 96.6579 106.321C82.4295 92.0182 68.1666 77.7619 53.8692 63.5517C53.4667 63.1491 53.1448 62.6774 52.7768 62.2403L56.2611 58.8699Z" fill="#FDD78E"/>
<path d="M50.6839 64.3569C56.0541 69.6484 61.4472 74.9169 66.7829 80.2313C76.1892 89.5949 85.5496 99.016 95.0135 108.334C96.4049 109.691 96.5544 110.404 95.094 111.854C93.6336 113.303 92.9321 113.165 91.5522 111.785C77.3392 97.4823 63.0878 83.2298 48.7981 69.0272C48.3266 68.5671 47.9241 68.0264 47.4872 67.5203L50.6839 64.3569Z" fill="#FDD78E"/>
<path d="M90.3563 116.282C87.9874 119.078 87.9874 119.078 85.5726 116.673C71.0069 102.103 56.399 87.5665 41.749 73.0649C40.8061 72.1216 39.8632 71.3164 41.4731 70.2121C42.623 69.4299 43.6924 67.2558 45.2333 69.8095C44.1639 71.4199 45.9347 71.788 46.5672 72.4322C61.1252 87.0872 75.7216 101.704 90.3563 116.282Z" fill="#FBFAFA"/>
<path d="M90.3448 120.412C90.9543 119.768 91.3108 119.342 91.7132 118.951L103.833 107.126C104.983 111.244 106.041 114.959 106.904 118.709C107.375 120.78 103.454 124.104 101.361 123.529C97.7848 122.552 94.2201 121.516 90.3448 120.412Z" fill="#FBFAFA"/>
<path d="M48.1656 50.8292C52.7653 54.4757 52.8343 54.5217 48.6946 58.5363C45.8427 61.3086 43.3129 64.4029 40.0931 66.7956C37.2183 64.2994 37.0458 62.1943 39.5756 59.5946C42.4044 56.6498 45.3023 53.751 48.1656 50.8292Z" fill="#422A20" fill-opacity="0.2"/>
<path d="M48.1656 50.8292C45.3023 53.751 42.4159 56.6498 39.5756 59.5946C37.0458 62.2173 37.2758 64.2994 40.0931 66.7956C38.9432 69.0962 37.8738 69.2573 35.9994 67.3362C31.9632 63.1836 31.8712 62.804 35.9994 58.6513C38.4832 56.1552 40.9556 53.636 43.4854 51.1973C44.9228 49.8514 46.4637 48.9542 48.1656 50.8292Z" fill="#FBFAFA"/>
<path d="M90.3563 116.282C75.7522 101.712 61.1559 87.0948 46.5672 72.4321C45.9347 71.7879 44.1638 71.4198 45.2333 69.8094C46.2452 69.8094 46.6477 70.7181 47.2226 71.2933C61.3207 85.3272 75.3919 99.3841 89.4363 113.464C90.0918 114.12 92.0926 114.706 90.3563 116.282Z" fill="#FDD78E"/>
<path d="M50.6839 64.3569L47.4986 67.5203C45.3828 66.508 45.9922 65.4957 47.3146 64.1729C48.6371 62.85 49.6605 62.2403 50.6839 64.3569Z" fill="#422A20" fill-opacity="0.2"/>
<path d="M56.2611 58.8699L52.8113 62.2403C50.7185 61.09 51.6614 60.0547 52.8113 58.7894C53.9612 57.524 55.1226 56.7533 56.2611 58.8699Z" fill="#422A20" fill-opacity="0.2"/>
<path d="M134.479 42.3974L90.7817 55.2579C90.7817 46.573 90.7817 38.1757 90.7817 29.7899C90.7817 27.2822 92.2881 28.7431 93.0816 28.9847C104.006 32.4356 114.93 36.0246 125.82 39.5676L134.479 42.3974Z" fill="#FBFAFA"/>
<path d="M71.1756 7.17455C70.3132 4.62084 71.5666 3.39 73.9009 2.91837C74.7488 2.78546 75.608 2.73921 76.4652 2.78034C122.186 2.78034 167.907 2.78034 213.628 2.78034C218.009 2.78034 218.895 3.53955 218.849 7.19756H185.34C169 7.19756 152.659 7.12854 136.33 7.19756C129.925 7.19756 123.509 7.40461 117.127 7.40461C110.744 7.40461 104.339 7.32409 97.9343 7.20906C95.4045 7.20906 92.5872 6.33482 90.5173 8.77349C90.4368 8.85401 89.8734 8.52042 89.5514 8.38238C90.4253 7.7267 91.4372 6.92148 90.2183 5.9092C88.7349 4.67836 88.3554 6.25429 87.8035 7.17455C86.6536 7.17455 85.3656 6.88697 84.5722 8.32486C84.1467 9.07257 83.3188 9.11858 82.6863 8.32486C83.5948 7.84173 84.2962 7.24357 83.6753 6.10475C83.5776 5.89387 83.4089 5.72411 83.1986 5.62525C82.9883 5.52639 82.75 5.50474 82.5253 5.5641C81.4789 5.9092 81.5019 6.77193 81.6399 7.65768C80.26 7.88774 78.5696 6.58788 77.5347 8.68146C77.3047 9.15309 76.3157 8.92303 75.8443 8.29035C76.7527 8.07179 77.3622 7.58866 77.1897 6.56488C77.0977 6.00122 76.7642 5.49508 76.1088 5.51809C75.0738 5.51809 74.7634 6.31181 74.6254 7.17455H71.1756Z" fill="#422A20" fill-opacity="0.2"/>
<path d="M75.7983 8.32493C76.2697 8.95761 77.2587 9.18767 77.4887 8.71604C78.5236 6.62246 80.214 7.92232 81.5939 7.69226L82.6863 8.35944C83.3188 9.13016 84.1467 9.08414 84.5722 8.35944C85.3656 6.94455 86.619 7.20912 87.8035 7.20912C88.2359 7.79471 88.8508 8.21965 89.5514 8.41696C89.8734 8.555 90.4368 8.88859 90.5173 8.80807C92.5872 6.36939 95.4045 7.19762 97.9343 7.24363C104.339 7.35866 110.756 7.43919 117.127 7.43919C123.497 7.43919 129.925 7.27814 136.33 7.23213C152.659 7.1401 169 7.23213 185.34 7.23213H218.849C219.136 10.9247 219.136 10.9362 215.399 10.9362H74.3379C70.6811 10.9362 70.6811 10.9362 71.1411 7.20912H74.5909L75.7983 8.32493Z" fill="#FBFAFA"/>
<path d="M227.404 68.7166L246.953 75.2504C241.755 78.5748 235.097 79.3226 233.292 85.9254C231.016 80.3012 229.05 74.5563 227.404 68.7166Z" fill="#FDD78E"/>
<path d="M227.404 68.7165C229.049 74.5718 231.014 80.3321 233.292 85.9713L230.728 91.976L222.195 67.2211C224.242 67.2211 225.783 68.1299 227.404 68.7165Z" fill="#FBFAFA"/>
<path d="M89.5514 8.41702C88.8509 8.21971 88.2359 7.79476 87.8035 7.20918C88.3555 6.28893 88.7349 4.713 90.2183 5.94384C91.4372 6.95612 90.4368 7.76133 89.5514 8.41702Z" fill="#594857"/>
<path d="M75.7983 8.32502L74.5793 7.17471C74.7173 6.31197 75.0278 5.54126 76.0628 5.51825C76.7182 5.51825 77.0517 6.00138 77.1437 6.56504C77.3162 7.62333 76.7067 8.10646 75.7983 8.32502Z" fill="#594857"/>
<path d="M82.6863 8.35937L81.5939 7.69219C81.4559 6.80645 81.4329 5.9437 82.4793 5.59861C82.704 5.53925 82.9423 5.5609 83.1526 5.65976C83.3628 5.75862 83.5316 5.92837 83.6292 6.13926C84.2962 7.27807 83.5948 7.88774 82.6863 8.35937Z" fill="#513F52"/>
</svg>
